<?xml version="1.0" standalone="no"?>
<!DOCTYPE svg PUBLIC "-//W3C//DTD SVG 20010904//EN"
 "http://www.w3.org/TR/2001/REC-SVG-20010904/DTD/svg10.dtd">
<svg version="1.0" xmlns="http://www.w3.org/2000/svg"
 width="700.000000pt" height="700.000000pt" viewBox="0 0 700.000000 700.000000"
 preserveAspectRatio="xMidYMid meet">
<metadata>
Created by potrace 1.14, written by Peter Selinger 2001-2017
</metadata>
<g transform="translate(0.000000,700.000000) scale(0.100000,-0.100000)"
fill="#000000" stroke="none">
<path d="M3270 6617 c-3 -3 -43 -8 -90 -11 -359 -26 -750 -135 -1081 -301 -60
-30 -126 -66 -149 -80 -22 -14 -42 -25 -45 -25 -8 0 -133 -82 -220 -144 -211
-150 -495 -417 -656 -617 -221 -275 -350 -495 -491 -839 -51 -124 -136 -436
-153 -560 -1 -8 -7 -49 -13 -90 -25 -167 -34 -303 -34 -490 -1 -223 12 -361
59 -645 9 -57 73 -295 99 -372 34 -101 109 -284 141 -348 14 -27 35 -68 46
-90 45 -88 163 -275 232 -370 347 -475 798 -845 1305 -1073 163 -73 450 -166
580 -188 14 -3 36 -7 50 -9 14 -3 39 -8 55 -11 17 -2 37 -7 45 -9 8 -2 42 -7
75 -11 33 -3 69 -8 80 -10 45 -9 250 -18 400 -18 190 0 318 8 464 30 58 9 115
17 126 19 173 26 462 114 662 200 666 291 1253 853 1586 1520 120 242 230 579
263 810 3 17 7 40 9 52 3 12 8 46 11 75 3 29 7 64 10 78 22 130 22 612 0 740
-3 14 -8 52 -11 85 -10 99 -64 349 -104 484 -149 492 -399 899 -796 1296 -280
281 -525 458 -865 626 -268 132 -637 240 -935 275 -33 3 -76 8 -95 11 -50 6
-555 15 -560 10z"/>
<path d="M6528 874 c-4 -3 -32 -16 -65 -30 -32 -13 -51 -24 -43 -24 17 0 120
46 120 55 0 7 -5 6 -12 -1z"/>
</g>
</svg>
