
<svg xmlns="http://www.w3.org/2000/svg" version="1.1" xmlns:xlink="http://www.w3.org/1999/xlink" preserveAspectRatio="none" x="0px" y="0px" width="3000px" height="3000px" viewBox="0 0 3000 3000">
<defs>
<g id="Layer2_0_FILL">
<path fill="#D3A63C" stroke="none" d="
M 1725.45 694.9
Q 1725.25 694.4 1725.1 694.1 1721.5 698.85 1718.15 704.15 1724.2 697.15 1725.45 694.9
M 1771.15 660.4
Q 1768.75 663.45 1766.5 665.65 1764.05 668.25 1760.95 670.8 1759.45 672 1722.9 702.4 1720.8 704.6 1717.1 707.2 1716.6 707.5 1715.95 707.85 1715.55 708 1715.2 708.35 1715.05 708.55 1714.9 708.7 1714.7 708.9 1714.7 709.2 1687 751.35 1657.6 817.5
L 1640.45 875.8 1681.4 866.25 1711.15 814.1
Q 1711.35 811.85 1711.65 811.55 1744.5 744.55 1756.85 724.15 1768.45 705.3 1781.5 693.4 1792.9 682.7 1805.3 677.4 1808.05 676.25 1810.75 675.6
L 1834.2 602.8
Q 1816.65 591.6 1801.25 612 1796.3 618.45 1784.05 640.05 1776.75 652.95 1771.15 660.4 Z"/>

<path fill="#D9C074" stroke="none" d="
M 1620.75 2221.25
Q 1627.9 2220.4 1634.3 2219.6
L 1642.35 2206.15
Q 1625.5 2215 1607.15 2223.15 1644.15 2214 1620.75 2221.25
M 1654.35 1565.05
Q 1645.25 1566.4 1635.7 1567.3 1590.5 1628.65 1527.25 1646.8 1446.55 1728.4 1298 1715.15 1201.65 1729.9 1155.2 1820.55 1095.75 1859.45 1061.75 1754.9 1005.2 1786 949.15 1729.45 895.7 1710.1 874.65 1641.25 877.35 1635.1 880.75 1631.35 829.6 1567.65 838.4 1456 837.25 1454.75 836.95 1448.65 815.15 1620 881.65 1768.35 880.6 1834.8 905.05 1891.75 948.4 1934.05 1094.75 2001.55 1117.2 2011.85 1139.6 2015.8 1193.7 2020.6 1247.85 1996.8 1317.7 1960.05 1387.55 1860.65 1569.2 1894.95 1672.25 1807.45 1674.45 1799.75 1678.2 1790.25
L 1687.2 1793.65
Q 1720.35 1760.65 1744.5 1713.6 1756.2 1705.1 1767.75 1696.8 1798.35 1679.8 1811.4 1663.15 1840.65 1625.45 1782.55 1587.85 1834.7 1487.75 1731.2 1528.05 1699.75 1540.1 1654.35 1565.05 Z"/>

<path fill="#E6D07B" stroke="none" d="
M 1564.15 2098.9
L 1556.3 2096.5 1523.9 2086.85 1447.25 2063.9
Q 1440.05 2098.6 1429.9 2119.15 1384.35 2131 1385.75 2130.85
L 1380.95 2135.3
Q 1373.4 2140.75 1359.2 2147.7 1358.35 2148 1357.45 2148.35 1342.5 2155.3 1337.6 2164.7 1348.15 2165.55 1359.4 2165.7 1362.2 2162.65 1364 2161.6 1367.2 2159.75 1371.6 2160.8 1378 2161.75 1380.45 2162.3 1380.75 2162.3 1380.95 2162.65 1380.2 2162.75 1379.75 2163.15 1378.4 2162.65 1373.95 2165.7 1385.2 2248.15 1690.6 2094.15 1690.6 2093.65 1690.75 2093.3
L 1666.8 2096.65 1564.15 2098.9 Z"/>

<path fill="#CCAE53" stroke="none" d="
M 1671.4 1810.3
Q 1671.7 1809 1672.25 1807.45 1569.2 1894.95 1387.55 1860.65 1317.7 1960.05 1247.85 1996.8 1276.75 1983.85 1305.8 1962.75 1478 1979.45 1544.6 1912.65 1571.8 1902.8 1596.95 1892.25 1650.95 1864.85 1667.65 1822.05 1669.85 1816.3 1671.4 1810.3
M 927 1932.7
Q 928.35 1934.9 929.75 1936.95 930.6 1939.7 931.55 1942.55 949.4 1993.2 970.15 2031.95 1003.45 2094.15 1044.45 2124.95 1088.3 2157.9 1140.8 2172.15 1163.75 2178.3 1188.4 2181 1225.6 2185.05 1262.15 2167.55 1333.85 2105.55 1351.9 2028.9
L 1284.6 2012.4
Q 1276.95 2043.15 1221.85 2067.65 1197.4 2073.6 1172.4 2072.25 1155.9 2071.2 1140.6 2069.15 1105.45 2064.25 1076.05 2053 1048.65 2042.5 1026.45 2021.25 1012.45 2008 1000.6 1990.65 999.9 1989.8 999.45 1988.8 998.35 1988.05 997.5 1987.4 989.05 1980.6 982.9 1973.3 1011.8 1987.8 1109.7 2010.85 1124.65 2014.45 1139.6 2015.8 1117.2 2011.85 1094.75 2001.55 948.4 1934.05 905.05 1891.75 914.25 1912.8 927 1932.7
M 1934 1414
Q 1931.55 1431.7 1928.35 1448.5 1903.4 1573.95 1822.8 1654 1817.05 1658.55 1811.4 1663.15 1798.35 1679.8 1767.75 1696.8 1756.2 1705.1 1744.5 1713.6 1720.35 1760.65 1687.2 1793.65
L 1699.4 1798.2
Q 1700.8 1797.25 1701.8 1796.4 1690.25 1810.7 1686.35 1823.55 1682.25 1836.5 1686.35 1848.1 1692.1 1864.4 1713.85 1878 1718.6 1904.8 1725.6 1906.85 1708.75 1927.95 1705.7 1928.1 1675.3 1930.15 1678.5 1951.35 1681.75 1972.45 1669.5 1985.25 1657.1 1998 1639.95 2000.5 1622.95 2003 1590.5 2028.2 1587.95 2028.05 1522.2 2041.6
L 1433.1 2043.15 1523.9 2086.85 1556.3 2096.5 1710.95 2091.4
Q 1809.2 2051.65 1812.95 2052.15 1861.55 1978.4 1887.05 1971.1 1912.55 1963.65 1931.05 1926.2 1949.4 1888.85 1944.65 1827.15 1939.75 1765.25 1985.3 1759.2 1989.85 1758.45 2014.85 1697.15 2004.65 1690.8 1997.3 1612.15 1964.9 1572.4 1956.4 1524.65 1950.3 1490.8 1956.2 1453.05 1962 1415.35 1979.5 1373.55 1977.8 1375.9 1975.75 1378.95
L 1944 1355.4
Q 1937.5 1388.5 1934 1414 Z"/>

<path fill="#DDC785" stroke="none" d="
M 2282.5 2004.05
Q 2277.75 2005.6 2274.2 2006.1 2277.75 2006.6 2283.75 2005.95 2291.35 2005.05 2303.3 1998.45 2313.95 1992.35 2328.05 1981.8 2298.7 1998.8 2282.5 2004.05
M 2499.05 1522.75
Q 2480.35 1470.8 2453.2 1424.5 2438.05 1399.05 2420.5 1375.25 2518.9 1756.95 2289.5 1737.6 2325.05 1858.75 2286.6 1964.8 2321.95 1901.95 2353.4 1881.55 2458.6 1871.2 2469.65 1589.7 2475.95 1608.95 2480.35 1629.15 2488.35 1665.85 2490.05 1704.95 2492.25 1752.9 2483.75 1793.35 2477.8 1821.35 2470.35 1847.05 2475.05 1841.45 2479.5 1836 2522.65 1783.15 2525.25 1750.5 2528.95 1699.55 2525.55 1643.6 2522 1586.15 2499.05 1522.75 Z"/>

<path fill="#B69940" stroke="none" d="
M 2014.85 1697.15
Q 1989.85 1758.45 1985.3 1759.2 1939.75 1765.25 1944.65 1827.15 1949.4 1888.85 1931.05 1926.2 1912.55 1963.65 1887.05 1971.1 1861.55 1978.4 1812.95 2052.15 1884 2000.8 1898.95 2005.6 1932.6 2016.6 1971.15 2039.4 2009.6 2062.15 2043.6 1967 2077.25 1871.85 2047.5 1816.95 2017.75 1762.05 2014.85 1697.15 Z"/>

<path fill="#C4A440" stroke="none" d="
M 2113.05 1696.45
Q 2111.4 1695.95 2109.85 1695.6 2099.85 1690.7 2090.45 1685.75 2031 1653.3 1997.3 1612.15 2004.65 1690.8 2014.85 1697.15 2017.75 1762.05 2047.5 1816.95 2077.25 1871.85 2043.6 1967 2009.6 2062.15 1971.15 2039.4 1932.6 2016.6 1898.95 2005.6 1884 2000.8 1812.95 2052.15 1809.2 2051.65 1710.95 2091.4
L 1749.55 2082.4
Q 1749.25 2083.45 1749.25 2084.65 1736.65 2156.85 1642.35 2206.15
L 1634.3 2219.6
Q 1687.65 2213.05 1700.8 2215.65 1732.4 2221.95 1853.55 2204.3 1904.55 2196.85 1951.1 2188.65 2308.15 2079.05 2113.05 1696.45
M 767.1 2206.65
Q 764.85 2203.25 745.15 2215.3 717.75 2232.15 709.15 2238.15 716.1 2254.6 731.9 2260 747.55 2265.45 781 2265.95
L 780.5 2264.6
Q 782.05 2263.1 783.2 2261.4 784.6 2259.5 785.8 2256.45 786.45 2254.9 788 2251.15 791.2 2243.4 797.65 2235.75 798.35 2235.2 799.05 2234.4 807.4 2224.85 810.75 2222.6 815.85 2219.9 820.1 2224.85 826.75 2230.95 828.9 2233.65 829.25 2234 829.4 2234.4 828.6 2234.7 827.6 2235.4 826.05 2232 811.4 2244.05 791.35 2260.7 784.7 2266.8 791.2 2268.7 803.4 2275.5 815.5 2282.3 843 2275.7 881.25 2272.6 1023.4 2222.45 888.45 2090.9 924.95 1954.75 896.25 2048.95 817.2 2109.6
L 746.5 2160.1
Q 679.25 2205.1 702 2236.05 706.25 2233.55 707.05 2232.65 709.15 2230.8 710.65 2227.75 711.5 2226.2 713.55 2222.45 717.75 2214.6 726.6 2207 727.6 2206.5 728.3 2205.6 739.7 2196.1 744.3 2193.9 751.1 2191.2 756.7 2196.1 765.7 2202.25 768.75 2205 769.1 2205.3 769.6 2205.6 768.25 2206 767.1 2206.65 Z"/>

<path fill="#B29B59" stroke="none" d="
M 2289.5 1737.6
Q 2281.7 1711.4 2277.4 1630.05 2226.25 1725.15 2113.05 1696.45 2308.15 2079.05 1951.1 2188.65 1959.8 2186.9 1968.5 2185.4
L 2024.05 2179.8
Q 2102.05 2170.95 2150.35 2155.3 2198.55 2139.5 2224.9 2095 2251.25 2050.3 2261.25 2023.8
L 2269.75 2006.3
Q 2269.45 2006.1 2269.25 2006.1 2265.55 2005.45 2263.5 2004.55 2262.3 2003.75 2261.45 2003
L 2274.35 1986.25
Q 2273 1987.25 2271.8 1988.05 2279.8 1976.7 2286.6 1964.8 2325.05 1858.75 2289.5 1737.6 Z"/>

<path fill="#CAB165" stroke="none" d="
M 2480.35 1629.15
Q 2475.95 1608.95 2469.65 1589.7 2458.6 1871.2 2353.4 1881.55 2321.95 1901.95 2286.6 1964.8 2279.8 1976.7 2271.8 1988.05 2273 1987.25 2274.35 1986.25
L 2261.45 2003
Q 2262.3 2003.75 2263.5 2004.55 2265.55 2005.45 2269.25 2006.1 2269.45 2006.1 2269.75 2006.3 2271.65 2006.3 2274 2006.1
L 2274.2 2006.1
Q 2277.75 2005.6 2282.5 2004.05 2298.7 1998.8 2328.05 1981.8 2341.8 1973.8 2358.5 1963.25 2364.1 1959.5 2370.4 1955.5 2399.6 1936.45 2420.05 1919.6 2456.25 1889.85 2463.7 1867.65 2467.05 1857.4 2470.35 1847.05 2477.8 1821.35 2483.75 1793.35 2492.25 1752.9 2490.05 1704.95 2488.35 1665.85 2480.35 1629.15 Z"/>

<path fill="#D6C171" stroke="none" d="
M 1202.95 2314.05
Q 1202.45 2314.4 1201.8 2315.05 1204.9 2317.25 1210.95 2331.4 1217.1 2345.15 1243.45 2349.95 1269.6 2354.7 1298.85 2365.6 1327.9 2376.3 1359.2 2364.05 1390.45 2351.6 1392.8 2336.8
L 1462.35 2312.4
Q 1526.25 2287.05 1548.85 2266.95 1552.05 2264.1 1554.5 2261.2 1577 2234.7 1620 2221.45 1613.6 2222.15 1607.15 2223.15 1625.5 2215 1642.35 2206.15 1736.65 2156.85 1749.25 2084.65 1438.05 2265.3 1237.65 2270.9 1234.1 2274.45 1229.5 2280.25 1209.5 2305.4 1203.35 2313.9
L 1202.95 2314.05
M 1273.2 2312.5
Q 1273.7 2311.85 1274.05 2311 1279.5 2299.25 1282.2 2296.05 1286.1 2291.95 1291.35 2296.2 1299 2301.15 1301.75 2303.35 1302.1 2303.5 1302.6 2304.05 1301.75 2304.5 1301.1 2305.25 1301.1 2304.4 1287.8 2322.9 1274.75 2341.4 1268.8 2347.85
L 1268.6 2347.75
Q 1267.75 2348.4 1266.4 2349.95
L 1264.35 2346.55
Q 1265.35 2344.45 1266.05 2342.45 1266.9 2340.05 1267.25 2336.65 1267.4 2334.8 1268.1 2330.7 1268.95 2321.85 1273.2 2312.5 Z"/>

<path fill="#6F6541" stroke="none" d="
M 1274.05 2311
Q 1273.7 2311.85 1273.2 2312.5 1268.95 2321.85 1268.1 2330.7 1267.4 2334.8 1267.25 2336.65 1266.9 2340.05 1266.05 2342.45 1265.35 2344.45 1264.35 2346.55
L 1266.4 2349.95
Q 1267.75 2348.4 1268.6 2347.75
L 1268.8 2347.85
Q 1274.75 2341.4 1287.8 2322.9 1301.1 2304.4 1301.1 2305.25 1301.75 2304.5 1302.6 2304.05 1302.1 2303.5 1301.75 2303.35 1299 2301.15 1291.35 2296.2 1286.1 2291.95 1282.2 2296.05 1279.5 2299.25 1274.05 2311
M 1237.65 2270.9
Q 1244.8 2262.95 1247.05 2264.6 1247.85 2263.4 1249.05 2262.95 1248.55 2262.4 1248 2262.4 1244.25 2260.9 1233.9 2258.15 1226.8 2255.4 1221.35 2260.35 1218.8 2263.1 1214.05 2270.9 1212.35 2273.45 1210.3 2276.85 1209.8 2277.9 1209.3 2278.7 1203.5 2288.9 1202.3 2297.7 1201.65 2301.85 1201.15 2303.7 1200.75 2306.9 1199.6 2309.5 1199.1 2310.65 1198.4 2312 1197.7 2312.85 1197.2 2313.9
L 1203.5 2309.8
Q 1200.95 2315.75 1201.8 2315.05 1202.45 2314.4 1202.95 2314.05
L 1203.35 2313.9
Q 1209.5 2305.4 1229.5 2280.25 1234.1 2274.45 1237.65 2270.9
M 799.05 2234.4
Q 798.35 2235.2 797.65 2235.75 791.2 2243.4 788 2251.15 786.45 2254.9 785.8 2256.45 784.6 2259.5 783.2 2261.4 782.05 2263.1 780.5 2264.6
L 781 2265.95 781.9 2268.15
Q 783.2 2267.15 784.4 2266.8
L 784.7 2266.8
Q 791.35 2260.7 811.4 2244.05 826.05 2232 827.6 2235.4 828.6 2234.7 829.4 2234.4 829.25 2234 828.9 2233.65 826.75 2230.95 820.1 2224.85 815.85 2219.9 810.75 2222.6 807.4 2224.85 799.05 2234.4
M 745.15 2215.3
Q 764.85 2203.25 767.1 2206.65 768.25 2206 769.6 2205.6 769.1 2205.3 768.75 2205 765.7 2202.25 756.7 2196.1 751.1 2191.2 744.3 2193.9 739.7 2196.1 728.3 2205.6 727.6 2206.5 726.6 2207 717.75 2214.6 713.55 2222.45 711.5 2226.2 710.65 2227.75 709.15 2230.8 707.05 2232.65 706.25 2233.55 702 2236.05 704.35 2235.05 703.35 2235.85
L 705.2 2239.45
Q 707.25 2238.4 708.75 2238.15
L 709.15 2238.15
Q 717.75 2232.15 745.15 2215.3
M 1189.2 1345.15
Q 1191.9 1343.8 1189.95 1341.95 1187.9 1339.85 1185.15 1339.85 1182.25 1339.85 1180.4 1341.95 1178.35 1343.8 1178.35 1346.7 1178.35 1349.4 1180.4 1351.45 1182.25 1353.5 1184.3 1353 1186.2 1352.45 1186.35 1349.4 1186.5 1346.35 1189.2 1345.15
M 1150.8 1365.75
Q 1148.95 1365.75 1147.05 1367.75 1145.05 1369.6 1144 1372.55 1143 1375.25 1145.05 1377.3 1146.9 1379.35 1149.8 1379.35 1152.55 1379.35 1154.55 1377.3 1156.6 1375.25 1156.6 1372.55 1156.6 1369.6 1154.55 1367.75 1152.55 1365.75 1150.8 1365.75
M 1154.75 1346.35
Q 1156.25 1346.2 1156.25 1343.45 1156.25 1340.6 1154.2 1338.7 1152.15 1336.65 1149.45 1336.65 1146.6 1336.65 1143.5 1337.55 1140.45 1338.35 1140.6 1341.4 1140.8 1344.35 1143.65 1347.2 1146.6 1349.95 1149.95 1348.2 1153.2 1346.55 1154.75 1346.35
M 1303.45 1433.7
Q 1303.95 1432.5 1304.1 1431.45 1301.75 1432.4 1299.55 1433.25 1298.7 1442.4 1258.05 1447.8 1201.3 1455.3 1182.4 1456.5
L 1182.25 1456.65
Q 1166.8 1465 1131.25 1455.3 1095.45 1445.6 1075.7 1428.25 1055.5 1411.1 1012.45 1408.9 988.15 1405.3 994.45 1400.95
L 1004.85 1386.3
Q 1024.4 1389.35 1038.8 1392.45 1068.4 1398.35 1075.2 1403.65 1081.3 1408.55 1086.55 1412.3 1103.1 1425.05 1109.7 1428.8 1123.8 1436.75 1134.85 1438 1143.35 1438.65 1150.15 1435.2 1151.35 1434.4 1174.15 1429.1
L 1173.1 1429 1166.65 1427.6
Q 1120.25 1419.1 1129.9 1410.75 1097.3 1384.25 1123.1 1311.85 1101.05 1340.95 1058.9 1361.5 975.25 1339.6 976.95 1300.65
L 976.15 1302.15
Q 975.9 1302.5 975.9 1302.85 975.75 1303.2 975.6 1303.55 973.35 1307.95 971.35 1312.4 962.7 1333.8 965.75 1344.35 967.75 1351.3 981.05 1375.9 992.75 1397.35 992.75 1405.7 992.75 1415.25 998.55 1427.45 1000.9 1432.5 1009.8 1447.3 1019.8 1463.75 1032.2 1477 1051.05 1496.95 1063.8 1493.9 1065.55 1493.35 1068.05 1492.35 1075.5 1489.1 1087.95 1480.6 1102.55 1470.6 1117.65 1469.25 1160.35 1465.35 1183.75 1469.25 1188.4 1470.1 1193.15 1473.15 1196.05 1474.8 1202.15 1479.1 1215.2 1487.4 1235.1 1488.95 1237 1488.95 1238.85 1489.1 1264.55 1490.8 1273.55 1488.1 1286.4 1484 1291.55 1466.85 1300.7 1443.05 1303.45 1433.7
M 1405.25 726.75
Q 1405.4 727.05 1405.4 728.95 1405.75 724.7 1405.4 724.5
L 1405.25 726.75 Z"/>

<path fill="#CEBA6F" stroke="none" d="
M 1178.9 2268.35
Q 1178.7 2269.15 1178.35 2270.05 1174.6 2282.65 1175.8 2291.45 1183.75 2311.3 1198.4 2312 1199.1 2310.65 1199.6 2309.5 1200.75 2306.9 1201.15 2303.7 1201.65 2301.85 1202.3 2297.7 1203.5 2288.9 1209.3 2278.7 1209.8 2277.9 1210.3 2276.85 1212.35 2273.45 1214.05 2270.9 1195.9 2270.4 1178.9 2268.35 Z"/>

<path fill="#E0CA7A" stroke="none" d="
M 1247.05 2264.6
Q 1244.8 2262.95 1237.65 2270.9 1438.05 2265.3 1749.25 2084.65 1749.25 2083.45 1749.55 2082.4
L 1710.95 2091.4 1556.3 2096.5 1564.15 2098.9 1666.8 2096.65 1690.75 2093.3
Q 1690.6 2093.65 1690.6 2094.15 1385.2 2248.15 1373.95 2165.7 1378.4 2162.65 1379.75 2163.15 1380.2 2162.75 1380.95 2162.65 1380.75 2162.3 1380.45 2162.3 1378 2161.75 1371.6 2160.8 1367.2 2159.75 1364 2161.6 1362.2 2162.65 1359.4 2165.7 1348.15 2165.55 1337.6 2164.7 1342.5 2155.3 1357.45 2148.35 1358.35 2148 1359.2 2147.7 1373.4 2140.75 1380.95 2135.3
L 1385.75 2130.85
Q 1384.35 2131 1429.9 2119.15 1440.05 2098.6 1447.25 2063.9
L 1523.9 2086.85 1433.1 2043.15 1418.7 2043.35 1396.95 2039.95 1351.9 2028.9
Q 1333.85 2105.55 1262.15 2167.55 1254.35 2180.65 1256.55 2180.3
L 1248.85 2191.7
Q 1237 2206.15 1213.7 2224 1212.35 2224.85 1211.15 2225.85 1186.9 2244.2 1178.9 2268.35 1195.9 2270.4 1214.05 2270.9 1218.8 2263.1 1221.35 2260.35 1226.8 2255.4 1233.9 2258.15 1244.25 2260.9 1248 2262.4 1248.55 2262.4 1249.05 2262.95 1247.85 2263.4 1247.05 2264.6 Z"/>

<path fill="#BDA049" stroke="none" d="
M 1221.85 2067.65
Q 1276.95 2043.15 1284.6 2012.4
L 1351.9 2028.9 1396.95 2039.95 1418.7 2043.35 1433.1 2043.15 1522.2 2041.6
Q 1587.95 2028.05 1590.5 2028.2 1622.95 2003 1639.95 2000.5 1657.1 1998 1669.5 1985.25 1681.75 1972.45 1678.5 1951.35 1675.3 1930.15 1705.7 1928.1 1708.75 1927.95 1725.6 1906.85 1718.6 1904.8 1713.85 1878 1692.1 1864.4 1686.35 1848.1 1682.25 1836.5 1686.35 1823.55 1690.25 1810.7 1701.8 1796.4 1700.8 1797.25 1699.4 1798.2
L 1687.2 1793.65 1678.2 1790.25
Q 1674.45 1799.75 1672.25 1807.45 1671.7 1809 1671.4 1810.3 1669.85 1816.3 1667.65 1822.05 1650.95 1864.85 1596.95 1892.25 1571.8 1902.8 1544.6 1912.65 1478 1979.45 1305.8 1962.75 1276.75 1983.85 1247.85 1996.8 1193.7 2020.6 1139.6 2015.8 1124.65 2014.45 1109.7 2010.85 1011.8 1987.8 982.9 1973.3 989.05 1980.6 997.5 1987.4 998.35 1988.05 999.45 1988.8 999.9 1989.8 1000.6 1990.65 1012.45 2008 1026.45 2021.25 1048.65 2042.5 1076.05 2053 1105.45 2064.25 1140.6 2069.15 1155.9 2071.2 1172.4 2072.25 1197.4 2073.6 1221.85 2067.65 Z"/>

<path fill="#AC9035" stroke="none" d="
M 927.5 1945.45
Q 926.15 1950.05 924.95 1954.75 888.45 2090.9 1023.4 2222.45 966.25 2245.2 994.3 2234.55 1058.2 2210.4 1140.8 2172.15 1088.3 2157.9 1044.45 2124.95 1003.45 2094.15 970.15 2031.95 949.4 1993.2 931.55 1942.55 930.6 1939.7 929.75 1936.95 928.65 1941.2 927.5 1945.45 Z"/>

<path fill="#D3B764" stroke="none" d="
M 1145.85 1737.9
Q 1160.35 1725.7 1171 1719.1 1134.65 1709.2 1078.55 1676.95 1064.3 1633.75 977.95 1663.15 952.5 1637.15 927.5 1650.9 897.45 1612.3 880.75 1631.35 877.35 1635.1 874.65 1641.25 895.7 1710.1 949.15 1729.45 1005.2 1786 1061.75 1754.9 1069.75 1750.5 1077.9 1744.2 1115.85 1748.65 1145.85 1737.9 Z"/>

<path fill="#F3EDB6" stroke="none" d="
M 1173.1 1429
L 1174.15 1429.1
Q 1176.15 1428.65 1178.15 1428.25 1174.95 1427.75 1171.55 1427.6
L 1173.1 1429 Z"/>

<path fill="#BBA257" stroke="none" d="
M 1117.65 1469.25
Q 1102.55 1470.6 1087.95 1480.6 1075.5 1489.1 1068.05 1492.35 1084.55 1526.85 1129.9 1523.1 1217.25 1515.65 1238.85 1489.1 1237 1488.95 1235.1 1488.95 1215.2 1487.4 1202.15 1479.1 1196.05 1474.8 1193.15 1473.15 1188.4 1470.1 1183.75 1469.25 1160.35 1465.35 1117.65 1469.25 Z"/>

<path fill="#272413" stroke="none" d="
M 1086.55 1412.3
Q 1081.3 1408.55 1075.2 1403.65 1068.4 1398.35 1038.8 1392.45 1024.4 1389.35 1004.85 1386.3
L 994.45 1400.95
Q 988.15 1405.3 1012.45 1408.9 1055.5 1411.1 1075.7 1428.25 1095.45 1445.6 1131.25 1455.3 1166.8 1465 1182.25 1456.65
L 1182.4 1456.5
Q 1201.3 1455.3 1258.05 1447.8 1298.7 1442.4 1299.55 1433.25 1299.85 1429.65 1294.1 1425.4 1273.35 1410.6 1274.55 1416.05 1275.55 1420.95 1271.8 1405.7 1203.85 1422.15 1178.5 1428.1 1178.35 1428.1 1178.15 1428.25 1176.15 1428.65 1174.15 1429.1 1151.35 1434.4 1150.15 1435.2 1143.35 1438.65 1134.85 1438 1123.8 1436.75 1109.7 1428.8 1103.1 1425.05 1086.55 1412.3
M 1558.35 1154.8
Q 1577.55 1101.1 1565.2 1066.75 1552.7 1032.45 1523.35 1015.6 1493.8 998.45 1462.5 977.55 1341.85 1011.05 1372.75 1074.25 1292.75 1157.55 1401.35 1228.45 1466.95 1240.15 1502.95 1224.35 1538.95 1208.4 1558.35 1154.8
M 1407.1 1063.05
Q 1396.55 1055.7 1396.55 1040.3 1396.55 1024.8 1407.5 1013.75 1418.5 1002.85 1433.95 1002.85 1449.45 1002.85 1460.3 1013.75 1471.35 1024.8 1471.35 1040.3 1471.35 1055.7 1457.6 1046.55 1443.65 1037.4 1430.55 1053.9 1417.5 1070.35 1407.1 1063.05
M 1126.2 957.3
Q 1110.55 946.95 1097.8 947.5 1084.9 948 1082 947.3 1016.05 1006.8 1049.85 1026.7 997.65 1116.4 1044.25 1153.95 1051.4 1156.55 1058.9 1158.1 1093.35 1164.7 1114.45 1138.8 1135.85 1112.65 1141.3 1062.05 1146.05 1015.15 1143.85 991.3 1141.6 967.55 1126.2 957.3
M 1111.05 975.7
Q 1123.3 969.4 1129.05 989.8 1134.85 1010 1134 1017.5 1133.15 1024.8 1123.45 1026.5 1113.8 1028.2 1105.1 1036 1096.45 1043.65 1088.45 1036.7 1080.5 1029.75 1080.5 1019.9 1080.5 1010 1089.65 996.1 1098.8 982.15 1111.05 975.7 Z"/>

<path fill="#252312" stroke="none" d="
M 1091.7 1223.45
Q 1075.9 1218.9 1057.2 1218.2 1035.45 1223.3 1010.8 1221.95
L 1007.7 1222.45
Q 1006.2 1222.65 1004.7 1222.95 1001.1 1223.65 997.5 1224.35
L 992.75 1226.9
Q 990.05 1231.3 988 1235.9 976.65 1260.75 980.5 1293 979.15 1295.9 977.95 1298.6
L 976.95 1300.65
Q 975.25 1339.6 1058.9 1361.5 1101.05 1340.95 1123.1 1311.85 1146.6 1280.75 1147.25 1240.15 1139.1 1239.95 1132.3 1239.15 1127.35 1238.45 1115.85 1233 1101.7 1226.55 1091.7 1223.45 Z"/>

<path fill="#CDC483" stroke="none" d="
M 1160.15 1240.15
Q 1153.2 1240.3 1147.25 1240.15 1146.6 1280.75 1123.1 1311.85 1097.3 1384.25 1129.9 1410.75 1120.25 1419.1 1166.65 1427.6
L 1173.1 1429 1171.55 1427.6
Q 1211.45 1355 1265.05 1326.65 1266.4 1326 1267.55 1325.3 1263.35 1322.4 1257.2 1319.85 1242.95 1313.7 1230.85 1301.3 1217.25 1287.05 1215.55 1273.5 1213.7 1257.95 1206.4 1248.8 1198.55 1239.15 1186.2 1239.15 1169 1239.65 1160.15 1240.15
M 1156.25 1343.45
Q 1156.25 1346.2 1154.75 1346.35 1153.2 1346.55 1149.95 1348.2 1146.6 1349.95 1143.65 1347.2 1140.8 1344.35 1140.6 1341.4 1140.45 1338.35 1143.5 1337.55 1146.6 1336.65 1149.45 1336.65 1152.15 1336.65 1154.2 1338.7 1156.25 1340.6 1156.25 1343.45
M 1147.05 1367.75
Q 1148.95 1365.75 1150.8 1365.75 1152.55 1365.75 1154.55 1367.75 1156.6 1369.6 1156.6 1372.55 1156.6 1375.25 1154.55 1377.3 1152.55 1379.35 1149.8 1379.35 1146.9 1379.35 1145.05 1377.3 1143 1375.25 1144 1372.55 1145.05 1369.6 1147.05 1367.75
M 1189.95 1341.95
Q 1191.9 1343.8 1189.2 1345.15 1186.5 1346.35 1186.35 1349.4 1186.2 1352.45 1184.3 1353 1182.25 1353.5 1180.4 1351.45 1178.35 1349.4 1178.35 1346.7 1178.35 1343.8 1180.4 1341.95 1182.25 1339.85 1185.15 1339.85 1187.9 1339.85 1189.95 1341.95 Z"/>

<path fill="#C5A954" stroke="none" d="
M 845.2 1444.05
Q 840.5 1458 838.4 1456 829.6 1567.65 880.75 1631.35 897.45 1612.3 927.5 1650.9 952.5 1637.15 977.95 1663.15 1064.3 1633.75 1078.55 1676.95 1134.65 1709.2 1171 1719.1 1160.35 1725.7 1145.85 1737.9 1115.85 1748.65 1077.9 1744.2 1069.75 1750.5 1061.75 1754.9 1095.75 1859.45 1155.2 1820.55 1201.65 1729.9 1298 1715.15 1446.55 1728.4 1527.25 1646.8 1418 1684.4 1331.85 1648.2 1242.45 1671.15 1147.25 1641.4 902.2 1649.7 845.2 1444.05 Z"/>

<path fill="#F0DEA0" stroke="none" d="
M 810.25 1276.85
Q 810.05 1279.9 810.25 1282.95 812.1 1328.5 822.45 1377.6 822.65 1378.8 822.8 1380
L 846.6 1439.85
Q 845.95 1442 845.2 1444.05 902.2 1649.7 1147.25 1641.4 1242.45 1671.15 1331.85 1648.2 1336.25 1647.05 1340.7 1645.8 1268.25 1636.25 1192.65 1613.35 1008.2 1606.2 987.65 1496.1 870.05 1467.05 810.25 1276.85 Z"/>

<path fill="#E3C472" stroke="none" d="
M 1186.5 1066.9
Q 1185.35 1080.9 1183.95 1077.85 1141.6 1198.15 1057.2 1218.2 1075.9 1218.9 1091.7 1223.45 1101.7 1226.55 1115.85 1233 1127.35 1238.45 1132.3 1239.15 1139.1 1239.95 1147.25 1240.15 1153.2 1240.3 1160.15 1240.15 1169 1239.65 1186.2 1239.15 1198.55 1239.15 1206.4 1248.8 1213.7 1257.95 1215.55 1273.5 1217.25 1287.05 1230.85 1301.3 1242.95 1313.7 1257.2 1319.85 1263.35 1322.4 1267.55 1325.3 1267.95 1325.6 1268.4 1326 1269.25 1326.65 1274.35 1297.9
L 1271.8 1325.1 1272 1324.8
Q 1273 1323.05 1273.85 1321.4 1306.65 1258.7 1271 1230.4
L 1272 1229.25 1217.95 1148.55
Q 1204.9 1128.15 1186.5 1066.9 Z"/>

<path fill="#706440" stroke="none" d="
M 1063.15 670.45
L 1046.3 670.45
Q 1046 745.7 1025.2 821.2 1033.75 813.55 1043.2 805.6
L 1058.2 765
Q 1062.95 717.7 1063.15 670.45
M 1850 817.3
Q 1849.5 809.6 1849.15 802.35 1808.2 767.2 1759.05 805.4 1749.55 812.7 1739.9 822.75
L 1747.5 834.65
Q 1757.75 851.65 1770.5 877.1 1783.25 902.6 1756 924.75 1747.5 931.7 1736.15 937.3
L 1726.3 941.7 1760.25 985.85 1768.95 981.65 1800.7 965.5
Q 1824 952.25 1836.2 941 1845.9 932.2 1848.65 924.75 1855.45 906.55 1850 817.3 Z"/>

<path fill="#DBB65C" stroke="none" d="
M 1108.85 676.25
L 1108.85 676.15
Q 1108.8 675.95 1108.8 675.85 1098.2 628.65 1074 594.3 1070.75 589.75 1068.4 587.85 1060.95 582.1 1060.95 601.75 1063.3 636.1 1063.15 670.45 1062.95 717.7 1058.2 765 1057.35 772.8 1056.35 780.6 1063.15 766.3 1079.3 751.5 1095.25 736.55 1102.7 719.75 1109.05 704.95 1108.85 676.25 Z"/>

<path fill="#A37D36" stroke="none" d="
M 1108.85 674.9
Q 1108.7 675.35 1108.8 675.85 1108.8 675.95 1108.85 676.15
L 1108.85 676.25
Q 1109.05 704.95 1102.7 719.75 1095.25 736.55 1079.3 751.5 1063.15 766.3 1056.35 780.6 1057.35 772.8 1058.2 765
L 1043.2 805.6
Q 1057.5 793.55 1074.15 780.6 1112.9 750.3 1149.65 728.1 1116.65 720.25 1108.85 674.9 Z"/>

<path fill="#B48E4A" stroke="none" d="
M 1079.8 569.65
Q 1079.45 569.5 1079.3 569.35 1039.35 544.85 1039.5 579.85 1041.4 591.95 1042.75 603.85 1046.45 637.1 1046.3 670.45
L 1063.15 670.45
Q 1063.3 636.1 1060.95 601.75 1060.95 582.1 1068.4 587.85 1070.75 589.75 1074 594.3 1098.2 628.65 1108.8 675.85 1108.7 675.35 1108.85 674.9 1116.65 720.25 1149.65 728.1 1151.65 726.9 1153.9 725.5 1178.5 710.75 1196.35 702.95 1167.3 624.4 1079.8 569.65
M 1076.75 581.55
Q 1078.55 582.6 1080.95 584.3 1081.3 584.45 1081.3 584.3 1124.65 615.55 1163.55 672.5 1162.7 680.6 1162.7 695.3 1162.95 696.65 1162.95 698 1151.85 695.95 1131.25 661.95 1131.6 662.45 1137.05 652.8 1109.85 614.9 1099.15 608.45 1088.3 601.95 1087.1 600.95
L 1076.75 581.55 Z"/>

<path fill="#97691C" stroke="none" d="
M 1080.95 584.3
Q 1078.55 582.6 1076.75 581.55
L 1087.1 600.95
Q 1088.3 601.95 1099.15 608.45 1109.85 614.9 1137.05 652.8 1131.6 662.45 1131.25 661.95 1151.85 695.95 1162.95 698 1162.95 696.65 1162.7 695.3 1162.7 680.6 1163.55 672.5 1124.65 615.55 1081.3 584.3 1081.3 584.45 1080.95 584.3 Z"/>

<path fill="#ECCD6F" stroke="none" d="
M 2071.1 1488.8
Q 2076.55 1476.55 2084.5 1466.55 2095.05 1452.8 2110.5 1442.55 2115.25 1424 2120.4 1409.25
L 1956.4 1524.65
Q 1964.9 1572.4 1997.3 1612.15 2031 1653.3 2090.45 1685.75 2041 1556.6 2071.1 1488.8 Z"/>

<path fill="#E1C56D" stroke="none" d="
M 2127.35 1352.45
Q 2140.8 1311.05 2182.4 1316.3 2189.75 1317.3 2198.1 1319.65 2198.35 1319 2198.75 1318.5
L 2201.15 1310
Q 2201.3 1307.6 2201.15 1305.05 2199.45 1287.75 2178.15 1261 2128.85 1249.15 2074.5 1294.35 2047.65 1316.45 2022.65 1350.25
L 2009.9 1367.75
Q 2009.25 1368.8 2007.05 1372.55 1995.5 1404.85 1991.75 1433.9 1987.85 1463.15 1991.9 1489.1
L 2100.15 1400.05
Q 2120.05 1332.8 2127.35 1352.45 Z"/>

<path fill="#F2DA92" stroke="none" d="
M 2182.4 1316.3
Q 2169.15 1327.8 2161.7 1347.55 2150.45 1322.05 2120.4 1409.25 2115.25 1424 2110.5 1442.55 2095.05 1452.8 2084.5 1466.55 2076.55 1476.55 2071.1 1488.8 2041 1556.6 2090.45 1685.75 2099.85 1690.7 2109.85 1695.6 2111.4 1695.95 2113.05 1696.45 2226.25 1725.15 2277.4 1630.05 2281.7 1711.4 2289.5 1737.6 2518.9 1756.95 2420.5 1375.25 2378.55 1318.5 2321.8 1271.55 2320.45 1270.55 2319.25 1269.55 2306.85 1259.5 2294.3 1251.85 2266.9 1235.2 2238.5 1229.25 2275.75 1268.9 2273.35 1292.65
L 2269.6 1303.7
Q 2269.1 1304.4 2268.6 1305.05 2227.65 1294.85 2201.15 1305.05 2201.3 1307.6 2201.15 1310
L 2198.75 1318.5
Q 2198.35 1319 2198.1 1319.65 2189.75 1317.3 2182.4 1316.3
M 2122.3 1570
Q 2122.3 1569 2122.05 1567.95 2117.2 1522.25 2123.45 1478.55 2246.65 1265.6 2340.3 1374.55 2332.35 1389.9 2325.3 1406.5 2362.95 1407.7 2400.8 1470.25 2401.35 1471.1 2401.8 1471.95 2404.05 1478.55 2406.25 1484.9 2371.6 1563.9 2328.75 1581.05 2320.75 1584.15 2312.8 1584.95 2302.3 1586.5 2290.85 1584.3 2280.65 1590.4 2271.95 1594.8 2220.5 1620.5 2226.45 1604.2 2188.35 1621.85 2160.3 1576.3 2159.85 1576.45 2159.35 1576.65
L 2152.8 1579.85
Q 2141.45 1589.4 2140.6 1623.35 2130.6 1608.25 2125.65 1588.7 2123.45 1579.85 2122.3 1570 Z"/>

<path fill="#FAE29A" stroke="none" d="
M 2122.05 1567.95
Q 2122.3 1569 2122.3 1570 2123.45 1579.85 2125.65 1588.7 2130.6 1608.25 2140.6 1623.35 2141.45 1589.4 2152.8 1579.85
L 2159.35 1576.65
Q 2159.85 1576.45 2160.3 1576.3 2188.35 1621.85 2226.45 1604.2 2220.5 1620.5 2271.95 1594.8 2280.65 1590.4 2290.85 1584.3 2302.3 1586.5 2312.8 1584.95 2320.75 1584.15 2328.75 1581.05 2371.6 1563.9 2406.25 1484.9 2404.05 1478.55 2401.8 1471.95 2401.35 1471.1 2400.8 1470.25 2362.95 1407.7 2325.3 1406.5 2332.35 1389.9 2340.3 1374.55 2246.65 1265.6 2123.45 1478.55 2117.2 1522.25 2122.05 1567.95 Z"/>

<path fill="#EBD07D" stroke="none" d="
M 2161.7 1347.55
Q 2169.15 1327.8 2182.4 1316.3 2140.8 1311.05 2127.35 1352.45 2120.05 1332.8 2100.15 1400.05
L 1991.9 1489.1
Q 1987.85 1463.15 1991.75 1433.9 1995.5 1404.85 2007.05 1372.55 2009.25 1368.8 2009.9 1367.75
L 2022.65 1350.25
Q 2047.65 1316.45 2074.5 1294.35 2128.85 1249.15 2178.15 1261 2199.45 1287.75 2201.15 1305.05 2227.65 1294.85 2268.6 1305.05 2269.1 1304.4 2269.6 1303.7
L 2273.35 1292.65
Q 2275.75 1268.9 2238.5 1229.25 2163.9 1213.8 2081.45 1272.25 2040.85 1301 2003.1 1344.65
L 1983.75 1367.4
Q 1982.75 1368.8 1979.5 1373.55 1962 1415.35 1956.2 1453.05 1950.3 1490.8 1956.4 1524.65
L 2120.4 1409.25
Q 2150.45 1322.05 2161.7 1347.55 Z"/>

<path fill="#C4B05B" stroke="none" d="
M 1299.55 1433.25
Q 1301.75 1432.4 1304.1 1431.45 1307.35 1418.25 1298.85 1415.35 1286.8 1411.45 1283.55 1405 1279.35 1396.5 1279.35 1368.95 1279.35 1341.25 1274.75 1332.6 1274.05 1331.6 1274.05 1325.6 1272.8 1325.3 1271.8 1325.1
L 1274.35 1297.9
Q 1269.25 1326.65 1268.4 1326 1267.95 1325.6 1267.55 1325.3 1266.4 1326 1265.05 1326.65 1211.45 1355 1171.55 1427.6 1174.95 1427.75 1178.15 1428.25 1178.35 1428.1 1178.5 1428.1 1203.85 1422.15 1271.8 1405.7 1275.55 1420.95 1274.55 1416.05 1273.35 1410.6 1294.1 1425.4 1299.85 1429.65 1299.55 1433.25 Z"/>

<path fill="#DFCC88" stroke="none" d="
M 1786.8 1107.05
Q 1721.35 1070.7 1680.7 1139 1677.65 1212.1 1641.8 1258.8 1513.8 1376.3 1274.05 1325.6 1274.05 1331.6 1274.75 1332.6 1279.35 1341.25 1279.35 1368.95 1279.35 1396.5 1283.55 1405 1286.8 1411.45 1298.85 1415.35 1307.35 1418.25 1304.1 1431.45 1303.95 1432.5 1303.45 1433.7 1300.7 1443.05 1291.55 1466.85 1286.4 1484 1273.55 1488.1 1264.55 1490.8 1238.85 1489.1 1217.25 1515.65 1129.9 1523.1 1084.55 1526.85 1068.05 1492.35 1065.55 1493.35 1063.8 1493.9 1051.05 1496.95 1032.2 1477 1019.8 1463.75 1009.8 1447.3 1000.9 1432.5 998.55 1427.45 992.75 1415.25 992.75 1405.7 992.75 1397.35 981.05 1375.9 967.75 1351.3 965.75 1344.35 962.7 1333.8 971.35 1312.4 973.35 1307.95 975.6 1303.55 975.75 1303.2 975.9 1302.85 975.9 1302.5 976.15 1302.15
L 976.95 1300.65 977.95 1298.6
Q 979.15 1295.9 980.5 1293 976.65 1260.75 988 1235.9 861.55 1243 902.2 1140.9
L 880.25 1114.4
Q 867.35 1139.2 852.4 1164.15 837.1 1189.5 827.4 1211.6 810.9 1248.95 810.25 1276.85 870.05 1467.05 987.65 1496.1 1008.2 1606.2 1192.65 1613.35 1268.25 1636.25 1340.7 1645.8 1336.25 1647.05 1331.85 1648.2 1418 1684.4 1527.25 1646.8 1590.5 1628.65 1635.7 1567.3 1645.25 1566.4 1654.35 1565.05 1699.75 1540.1 1731.2 1528.05 1785.05 1476.55 1790.7 1358.6 1839.3 1250.5 1786.8 1107.05
M 1533.7 1527.05
Q 1503.8 1541.8 1473.75 1546.05 1447.25 1539.9 1428.85 1538.7 1469.15 1501.55 1519.3 1422.3 1508.75 1357.2 1638.9 1337.2 1654.25 1286.5 1695.35 1287.55 1710.8 1203.4 1756.5 1239.65 1775.4 1342.6 1719.95 1403.3 1681.05 1529.55 1565 1508.65 1549.35 1519.2 1533.7 1527.05 Z"/>

<path fill="#E8D48C" stroke="none" d="
M 1473.75 1546.05
Q 1503.8 1541.8 1533.7 1527.05 1549.35 1519.2 1565 1508.65 1681.05 1529.55 1719.95 1403.3 1775.4 1342.6 1756.5 1239.65 1710.8 1203.4 1695.35 1287.55 1654.25 1286.5 1638.9 1337.2 1508.75 1357.2 1519.3 1422.3 1469.15 1501.55 1428.85 1538.7 1447.25 1539.9 1473.75 1546.05 Z"/>

<path fill="#957537" stroke="none" d="
M 1823.15 1029.4
L 1861.55 1054.7 1866.7 995.6 1829.4 999.65 1826.9 967.7 1823.15 1029.4 Z"/>

<path fill="#CBB367" stroke="none" d="
M 1836.2 941
Q 1824 952.25 1800.7 965.5
L 1768.95 981.65 1776.6 1081.2
Q 1782.05 1094.3 1786.8 1107.05 1839.3 1250.5 1790.7 1358.6 1785.05 1476.55 1731.2 1528.05 1834.7 1487.75 1782.55 1587.85 1840.65 1625.45 1811.4 1663.15 1817.05 1658.55 1822.8 1654 1903.4 1573.95 1928.35 1448.5 1931.55 1431.7 1934 1414 1937.5 1388.5 1944 1355.4 1945.7 1347.2 1947.35 1338.2 1956.4 1291.95 1906.6 1192.05 1889.95 1175.25 1882.8 1160.55 1874.95 1144.45 1871.55 1137.8 1870.9 1136.8 1870.55 1135.95 1873.1 1132.2 1874.85 1129.65 1876.65 1126.45 1877.5 1125.05 1885 1111.8 1891.45 1096.4 1892.15 1094.15 1893 1092.1 1881.1 1073.95 1859.5 1082.1 1853.35 1084.5 1846.6 1088.7
L 1861.55 1054.7 1823.15 1029.4 1826.9 967.7 1829.4 999.65
Q 1828.6 959.7 1836.2 941 Z"/>

<path fill="#B59941" stroke="none" d="
M 1847.3 615.25
Q 1840.65 606.9 1834.2 602.8
L 1810.75 675.6
Q 1834.2 668.6 1838.4 696.95 1844.55 736.45 1849.15 802.35 1849.5 809.6 1850 817.3 1855.45 906.55 1848.65 924.75 1845.9 932.2 1836.2 941 1828.6 959.7 1829.4 999.65
L 1866.7 995.6 1861.55 1054.7 1846.6 1088.7
Q 1853.35 1084.5 1859.5 1082.1 1881.1 1073.95 1893 1092.1 1898.45 1077.45 1902.85 1060.85 1912.85 1022.4 1912.85 988.8 1912.85 930.3 1895.2 803.85 1883.3 719.25 1870.25 670.8 1859.15 630.15 1847.3 615.25 Z"/>

<path fill="#E1CE87" stroke="none" d="
M 1709.9 713.05
L 1710.8 712.3
Q 1712.85 710.4 1714.9 708.7 1715.05 708.55 1715.2 708.35 1714 709 1712.85 709.9 1712.35 710.1 1712 710.4
L 1709.9 713.05 Z"/>

<path fill="#C19D3D" stroke="none" d="
M 1781.5 693.4
Q 1768.45 705.3 1756.85 724.15 1744.5 744.55 1711.65 811.55 1711.35 811.85 1711.15 814.1
L 1681.4 866.25 1739.9 822.75
Q 1749.55 812.7 1759.05 805.4 1808.2 767.2 1849.15 802.35 1844.55 736.45 1838.4 696.95 1834.2 668.6 1810.75 675.6 1808.05 676.25 1805.3 677.4 1792.9 682.7 1781.5 693.4 Z"/>

<path fill="#A88643" stroke="none" d="
M 1365.95 756.8
Q 1358.7 758.5 1351.5 761.25 1305.95 778.2 1260.6 838.4 1209.1 907.55 1189.1 998.3
L 1192.8 1049.15 1201.15 1039.75 1243.6 991.3 1281 872.4
Q 1293.75 814.6 1365.95 756.8 Z"/>

<path fill="#D5B458" stroke="none" d="
M 1351.5 761.25
Q 1358.7 758.5 1365.95 756.8 1293.75 814.6 1281 872.4
L 1243.6 991.3 1201.15 1039.75 1186.5 1066.9
Q 1204.9 1128.15 1217.95 1148.55
L 1272 1229.25 1271 1230.4
Q 1306.65 1258.7 1273.85 1321.4 1273 1323.05 1272 1324.8
L 1271.8 1325.1
Q 1272.8 1325.3 1274.05 1325.6 1513.8 1376.3 1641.8 1258.8 1677.65 1212.1 1680.7 1139 1721.35 1070.7 1786.8 1107.05 1782.05 1094.3 1776.6 1081.2
L 1768.95 981.65 1760.25 985.85 1726.3 941.7 1736.15 937.3
Q 1747.5 931.7 1756 924.75 1783.25 902.6 1770.5 877.1 1757.75 851.65 1747.5 834.65
L 1739.9 822.75 1681.4 866.25 1640.45 875.8 1657.6 817.5
Q 1687 751.35 1714.7 709.2 1712.65 710.75 1710.8 712.3
L 1709.9 713.05 1712 710.4
Q 1703.85 714.95 1691.1 720.6 1650.85 737.75 1601.85 724.35 1563.8 713.95 1471.5 704.6 1470.15 709.55 1471.35 710.4 1451.45 712.95 1432.6 718.05 1432.1 720.25 1431.75 722.45 1431.25 725.2 1431.75 725.7 1419 728.25 1407.6 734.9 1407.1 728.75 1404.75 734.9 1405.1 732.3 1405.25 730.65
L 1405.25 730.5
Q 1405.25 729.95 1405.25 729.6
L 1405.4 728.95
Q 1405.4 727.05 1405.25 726.75 1405.1 727.05 1405.1 727.55 1405.1 727.7 1405.1 727.9 1404.9 728.95 1404.9 731.15 1404.9 731.85 1404.9 732.7
L 1404.9 732.85
Q 1404.05 731.95 1403.55 731.3 1395.55 743.25 1351.5 761.25
M 1546.15 935.4
Q 1571.25 950.05 1583.2 970.05 1595.4 990.15 1593 1004.6 1590.65 1018.85 1593.4 1048.6 1596.25 1078.35 1571.8 1023.8 1547.3 969.05 1483.75 946.3 1420.35 923.35 1432.3 912.15 1444.15 900.95 1482.6 910.75 1521.15 920.6 1546.15 935.4
M 1565.2 1066.75
Q 1577.55 1101.1 1558.35 1154.8 1538.95 1208.4 1502.95 1224.35 1466.95 1240.15 1401.35 1228.45 1381.45 1226 1360.55 1220.45 1287.1 1200.5 1250.4 1149.05
L 1264.2 1123.4
Q 1264.55 1058.95 1290 1015.95 1315.5 973 1353.2 958.05 1391 943.05 1462.5 977.55 1493.8 998.45 1523.35 1015.6 1552.7 1032.45 1565.2 1066.75 Z"/>

<path fill="#FAF7DD" stroke="none" d="
M 1372.75 1074.25
Q 1341.85 1011.05 1462.5 977.55 1391 943.05 1353.2 958.05 1315.5 973 1290 1015.95 1264.55 1058.95 1264.2 1123.4
L 1250.4 1149.05
Q 1287.1 1200.5 1360.55 1220.45 1381.45 1226 1401.35 1228.45 1292.75 1157.55 1372.75 1074.25
M 998.9 1006.25
Q 982.9 1024.3 972.05 1071.35 961.15 1118.45 983.9 1132.4 1006.5 1146.3 1044.25 1153.95 997.65 1116.4 1049.85 1026.7 1016.05 1006.8 1082 947.3 1043.4 937.75 998.9 1006.25 Z"/>

<path fill="#FFFFFF" stroke="none" d="
M 1396.55 1040.3
Q 1396.55 1055.7 1407.1 1063.05 1417.5 1070.35 1430.55 1053.9 1443.65 1037.4 1457.6 1046.55 1471.35 1055.7 1471.35 1040.3 1471.35 1024.8 1460.3 1013.75 1449.45 1002.85 1433.95 1002.85 1418.5 1002.85 1407.5 1013.75 1396.55 1024.8 1396.55 1040.3
M 1129.05 989.8
Q 1123.3 969.4 1111.05 975.7 1098.8 982.15 1089.65 996.1 1080.5 1010 1080.5 1019.9 1080.5 1029.75 1088.45 1036.7 1096.45 1043.65 1105.1 1036 1113.8 1028.2 1123.45 1026.5 1133.15 1024.8 1134 1017.5 1134.85 1010 1129.05 989.8 Z"/>

<path fill="#E2C060" stroke="none" d="
M 1583.2 970.05
Q 1571.25 950.05 1546.15 935.4 1521.15 920.6 1482.6 910.75 1444.15 900.95 1432.3 912.15 1420.35 923.35 1483.75 946.3 1547.3 969.05 1571.8 1023.8 1596.25 1078.35 1593.4 1048.6 1590.65 1018.85 1593 1004.6 1595.4 990.15 1583.2 970.05 Z"/>

<path fill="#E5C66C" stroke="none" d="
M 1360 701.55
Q 1358.35 698.2 1356.95 694.9 1248.55 687.8 1216.1 695.95 1207.55 698.2 1196.35 702.95 1178.5 710.75 1153.9 725.5 1151.65 726.9 1149.65 728.1 1112.9 750.3 1074.15 780.6 1057.5 793.55 1043.2 805.6 1033.75 813.55 1025.2 821.2 971.5 869.45 958.6 903 952.15 919.75 941.25 957.5 929.55 998.3 922.55 1017.85 905.25 1065.95 880.25 1114.4
L 902.2 1140.9
Q 861.55 1243 988 1235.9 990.05 1231.3 992.75 1226.9
L 997.5 1224.35
Q 1001.1 1223.65 1004.7 1222.95 1006.2 1222.65 1007.7 1222.45
L 1010.8 1221.95
Q 1035.45 1223.3 1057.2 1218.2 1141.6 1198.15 1183.95 1077.85 1185.35 1080.9 1186.5 1066.9
L 1201.15 1039.75 1192.8 1049.15 1189.1 998.3
Q 1209.1 907.55 1260.6 838.4 1305.95 778.2 1351.5 761.25 1395.55 743.25 1403.55 731.3 1395 721.6 1391.15 720.75 1390.45 718.9 1389.95 717 1388.2 711.4 1387 706.15 1369 702.95 1360 701.55
M 1066.5 873.05
Q 1104.9 863.2 1116.85 874.45 1128.7 885.65 1065.35 908.55 1001.8 931.35 977.3 986.05 952.85 1040.6 955.7 1010.9 958.4 981.1 956.1 966.85 953.7 952.45 965.9 932.35 977.8 912.3 1002.95 897.7 1028 882.9 1066.5 873.05
M 1097.8 947.5
Q 1110.55 946.95 1126.2 957.3 1141.6 967.55 1143.85 991.3 1146.05 1015.15 1141.3 1062.05 1135.85 1112.65 1114.45 1138.8 1093.35 1164.7 1058.9 1158.1 1051.4 1156.55 1044.25 1153.95 1006.5 1146.3 983.9 1132.4 961.15 1118.45 972.05 1071.35 982.9 1024.3 998.9 1006.25 1043.4 937.75 1082 947.3 1084.9 948 1097.8 947.5 Z"/>

<path fill="#EAD28C" stroke="none" d="
M 1116.85 874.45
Q 1104.9 863.2 1066.5 873.05 1028 882.9 1002.95 897.7 977.8 912.3 965.9 932.35 953.7 952.45 956.1 966.85 958.4 981.1 955.7 1010.9 952.85 1040.6 977.3 986.05 1001.8 931.35 1065.35 908.55 1128.7 885.65 1116.85 874.45 Z"/>

<path fill="#E1BD4C" stroke="none" d="
M 1443.3 626.95
Q 1445.5 622.05 1448.4 617.3 1413.05 629.15 1397.75 685.05 1389.2 669.1 1392.95 634.6 1390.6 638.15 1388.95 642.25 1377.55 667.05 1387 706.15 1388.2 711.4 1389.95 717 1390.45 718.9 1391.15 720.75 1395 721.6 1403.55 731.3 1404.05 731.95 1404.9 732.85
L 1404.9 732.7
Q 1404.9 731.85 1404.9 731.15 1404.9 728.95 1405.1 727.9 1405.1 727.7 1405.1 727.55 1405.1 727.05 1405.25 726.75
L 1405.4 724.5
Q 1405.75 724.7 1405.4 728.95
L 1405.25 729.6
Q 1405.25 729.95 1405.25 730.5
L 1405.25 730.65
Q 1405.1 732.3 1404.75 734.9 1407.1 728.75 1407.6 734.9 1419 728.25 1431.75 725.7 1431.25 725.2 1431.75 722.45 1432.1 720.25 1432.6 718.05 1438.05 693.4 1455.05 679.3 1443.3 671.6 1431.55 686.4 1429.9 655 1443.3 626.95 Z"/>

<path fill="#B09057" stroke="none" d="
M 1448.4 617.3
Q 1445.5 622.05 1443.3 626.95 1429.9 655 1431.55 686.4 1443.3 671.6 1455.05 679.3 1438.05 693.4 1432.6 718.05 1451.45 712.95 1471.35 710.4 1470.15 709.55 1471.5 704.6 1478 679.65 1493.95 660.4 1509.75 641.25 1535.1 627.65 1502.95 614.05 1470.85 640.55 1465.05 574.75 1517.1 517.15 1424.75 537.55 1382.3 629.3 1380.2 633.6 1378.4 638 1355.25 609.6 1365.45 548.1 1312.95 600.3 1356.95 694.9 1358.35 698.2 1360 701.55 1369 702.95 1387 706.15 1377.55 667.05 1388.95 642.25 1390.6 638.15 1392.95 634.6 1389.2 669.1 1397.75 685.05 1413.05 629.15 1448.4 617.3 Z"/>
</g>
</defs>

<g transform="matrix( 1, 0, 0, 1, 0,0) ">
<use xlink:href="#Layer2_0_FILL"/>
</g>
</svg>
