
<svg xmlns="http://www.w3.org/2000/svg" version="1.1" xmlns:xlink="http://www.w3.org/1999/xlink" preserveAspectRatio="none" x="0px" y="0px" width="5000px" height="2700px" viewBox="0 0 5000 2700">
<defs>
<filter id="Filter_1" x="-20%" y="-20%" width="140%" height="140%" color-interpolation-filters="sRGB">
<feColorMatrix in="SourceGraphic" type="matrix" values="1 0 0 0 0 0 1 0 0 0 0 0 1 0 0 0 0 0 1 0 " result="result1"/>

<feColorMatrix in="result1" type="matrix" values="1 0 0 0 0 0 1 0 0 0 0 0 1 0 0 0 0 0 0.23 0" result="result2"/>
</filter>

<filter id="Filter_2" x="-20%" y="-20%" width="140%" height="140%" color-interpolation-filters="sRGB">
<feFlood flood-color="#000000" flood-opacity="1" in="SourceGraphic" result="result1"/>

<feComposite in2="SourceGraphic" in="result1" operator="in" result="result2"/>

<feGaussianBlur in="result2" stdDeviation="1.3333333333333333,1.3333333333333333" result="result3"/>

<feOffset dx="28.32042786498028" dy="36.248494665909206" in="result3" result="result4"/>

<feComposite in2="result4" in="SourceGraphic" operator="over" result="result5"/>

<feColorMatrix in="result5" type="matrix" values="0.98 0 0 0 0.004980392156862757 0 0.98 0 0 0.004980392156862757 0 0 0.98 0 0.004980392156862757 0 0 0 1 0 " result="result6"/>
</filter>

<filter id="Filter_3" x="-20%" y="-20%" width="140%" height="140%" color-interpolation-filters="sRGB">
<feFlood flood-color="#000000" flood-opacity="1" in="SourceGraphic" result="result1"/>

<feComposite in2="SourceGraphic" in="result1" operator="in" result="result2"/>

<feGaussianBlur in="result2" stdDeviation="17.666666666666668,17.666666666666668" result="result3"/>

<feOffset dx="21.213203435596427" dy="21.213203435596423" in="result3" result="result4"/>

<feComposite in2="result4" in="SourceGraphic" operator="over" result="result5"/>
</filter>

<g id="Layer6_0_FILL">
<path fill="#FEF8E5" stroke="none" d="
M 4673.6 282.15
Q 4658.25 268.35 4639.25 268.95 4622.35 269.5 4608.65 281.2 4603.15 274.55 4596.4 269.05 4578.85 254.9 4556.9 251.15 4540.1 248.25 4525.3 252.1 4508.65 256.45 4496.45 268.85 4484.25 281.15 4477 300.85 4469.95 320.35 4469.75 341.5
L 4200.75 341.5
Q 4176.25 336.65 4156.3 326.9 4146.3 321.9 4118.55 304.3 4095.05 289.45 4080.25 283.9 4064.75 278.2 4044.75 276.3 4032.6 275.15 3695.05 251.4 3357.45 227.65 3019.2 250.9 2680.9 274.1 2671.75 277.75 2662.6 281.4 2658 282.8 2655.85 282.05 2653.5 281.4 2640.35 277.9 2622.15 277.15 2620.25 277.05 2590.1 276.7 2570.55 276.5 2558.05 274.55 2551.75 273.6 2540.7 271.05 2528.35 268.25 2523.45 267.35 2504.55 263.9 2491.15 267 2486.25 265.45 2480.55 264.35 2464 261.75 2455.8 259.95 2438.55 255.25 2429.9 253.3 2414.7 250.05 2403.95 252.3 2402.3 252.7 2400.6 253.2 2393.85 248.5 2386.15 245.2 2371.95 238.9 2350.3 235.25 2325.85 231.8 2313.8 229.45 2295.9 225.9 2265.35 215.75 2230.6 204.25 2216.9 200.85 2187.25 193.4 2149.55 191.1 2126.85 189.65 2081.75 189.65
L 1642 189.5
Q 1581.7 189.5 1552.1 190.35 1502.1 191.7 1462.35 196.05 1431.55 199.45 1389.25 206.7 1340.6 215.4 1316.3 219.6 1273.55 227 1243.4 230.55 1203.7 235.15 1170.05 235.2 1149.7 235 1139.55 235.05 1121.6 235.05 1108.95 236.45 1074.55 240.25 1051.3 257.15 1038 266.8 1027.6 283.9 1024.65 288.65 1022.2 293.65 1013.6 292.3 1006.1 291.25 945.25 282.45 895.55 278.95 885.85 278.2 875.25 277.6 875.35 260.5 870.65 243.55 864.2 220.25 850.85 205.85 838.45 192.4 820.25 187.1 805.95 182.9 786.3 183.4 771.35 183.8 760.5 186.65 746.7 190.4 736.35 198.75 736 199.15 735.55 199.45 721.2 188.1 699.7 185.8 691.65 184.95 679.7 185.1 666.25 185.35 659.7 185.3 642.4 184.8 633.6 184.7 618.1 184.45 607.5 186 578.25 190.1 561.75 211 550.25 225.55 545.1 247.4 542.15 260.05 541.85 272.8 524 272.8 511.5 273 468.35 273.7 444.7 298.8 421.05 323.85 386.75 345.05 352.45 366.3 299.6 346.75 246.9 327.2 244.15 329.2
L 244.15 509.4
Q 235.35 513.1 224.55 518.55 204 529.05 191.55 539.55 174.45 553.95 165.4 573.3 158.6 587.9 156.5 606.3 154.65 623.9 157.4 641.85 160.35 659.8 167.25 674.55 172.5 685.75 179.5 693.45 170.35 701.65 163.45 714 154.9 729.15 151.55 747.3 149.75 757.2 149.55 767.3 141.2 778.35 135.6 794.4 126.65 820.3 128.5 848.4 130 871.05 138.15 890.55 141.05 897.55 144.55 903.55 143.3 903.85 142.1 904.25 122.85 910.7 110.15 930.7 97.55 950.65 94.85 978.95 92.2 1007.2 100.55 1031.4 109 1055.55 126.4 1069.25 143.05 1082.35 160.85 1080.5 162.8 1087.8 165.8 1094.85 174.95 1116.85 190.05 1128.2 197.75 1134 206.2 1136.45 205.85 1156.95 212.25 1176.2 219 1196.8 231.3 1209.65 237.05 1215.75 244.15 1220.15
L 264.6 1399.1
Q 247.8 1400.9 234.35 1414.3 220 1428.6 212.85 1452.8 205.55 1476.95 208.3 1501.75 209.55 1513 212.7 1523.6 214.05 1528.05 215.65 1532.15 210.7 1545.75 209.05 1562.15 206.25 1590.35 214.6 1614.55 222.95 1638.75 240.25 1652.6 257.5 1666.5 276.2 1664.05 280.6 1663.4 284.85 1661.85 289.8 1663.65 294.8 1664.2
L 295.35 1668.9
Q 5540.5 2054.25 4629.3 1686.2 4639.3 1685.8 4653.3 1685.3 4711.95 1683.15 4797.6 1680 4753.9 1640.4 4744.75 1638.9 4757 1637.25 4767.9 1628.55 4775.9 1622.1 4782.15 1612.7 4790.1 1600.45 4794.95 1583.3 4803.4 1552.95 4797.2 1523.75 4791.35 1496.55 4774.65 1478.9 4791.8 1464.6 4799.8 1440.05 4808.3 1413.85 4803.85 1383.7 4799.45 1353.5 4784.3 1334.55 4773.1 1320.6 4758.7 1315.75
L 4765 1244.2
Q 4769.55 1237.15 4773.05 1228.45 4778.6 1214.9 4780.8 1199.3 4783 1183.5 4781.5 1168.1 4779.95 1152.15 4774.5 1138.85 4774.35 1138.5 4774.2 1138.1
L 4785.65 1006.75
Q 4796.4 1003.45 4804.95 997.05 4820.55 985.35 4829.95 962.25 4839.3 939.25 4838.65 913.8 4838.05 888.4 4827.6 866.3 4817.25 844.15 4801.05 834 4800.85 833.95 4800.75 833.8
L 4824.4 563.15
Q 4829.5 561.5 4833.9 559.1 4851 549.8 4862.2 527.55 4873.5 505.3 4874.35 479.2 4875.3 453.1 4865.55 429.3 4855.95 405.5 4839.75 393.85 4839.5 393.65 4839.15 393.45
L 4843.05 347.8 4762.45 348.05 4762.45 341.5 4701.65 341.5
Q 4700.1 331.15 4696.9 320.9 4688.95 296 4673.6 282.15
M 4670.8 1657.05
Q 4644.4 1652.45 4650.5 1648.5 4655.4 1645.4 4670.8 1657.05 Z"/>
</g>

<g id="Symbol_2_0_Layer0_0_FILL">
<path fill="#D3A63C" stroke="none" d="
M 1953.95 764.4
Q 1953.65 763.7 1953.45 763.25 1948.3 770.1 1943.45 777.7 1952.15 767.65 1953.95 764.4
M 2062.8 645.35
Q 2055.7 654.6 2038.1 685.65 2027.65 704.15 2019.6 714.85 2016.15 719.25 2012.9 722.4 2009.4 726.15 2004.95 729.8 2002.8 731.5 1950.3 775.2 1947.25 778.35 1941.95 782.1 1941.25 782.5 1940.3 783 1939.75 783.2 1939.25 783.75 1939 784 1938.8 784.25
L 1938.75 784.25
Q 1938.5 784.5140625 1938.5 784.95 1898.75 845.5 1856.5 940.5
L 1831.85 1024.25 1890.7 1010.5 1933.4 935.6
Q 1933.7 932.4 1934.15 931.95 1981.3 835.7 1999.05 806.4 2015.7 779.35 2034.45 762.25 2050.85 746.9 2068.65 739.3 2072.6 737.6 2076.45 736.7
L 2110.15 632.15
Q 2084.95 616.05 2062.8 645.35 Z"/>

<path fill="#BDA049" stroke="none" d="
M 1877.55 2362.35
Q 1876.75 2364.55 1876.3 2366.4 1874.1 2375.05 1870.95 2383.3 1846.95 2444.75 1769.4 2484.1 1733.25 2499.25 1694.2 2513.4 1598.55 2609.35 1351.2 2585.4 1314.58515625 2612.0048828125 1278.1 2629.6 1387.7986328125 2650.65 1506.2 2650.65 1709.4953125 2650.65 1887.05 2588.55 1888.127734375 2579.493359375 1886.5 2569 1881.9 2538.55 1925.6 2535.6 1929.95 2535.4 1954.15 2505.1 1944.1 2502.15 1937.3 2463.65 1906.05 2444.1 1897.8 2420.7 1891.9 2404.05 1897.8 2385.45 1903.4 2367 1920 2346.45 1918.55 2347.7 1916.55 2349.05
L 1899 2342.5 1886.1 2337.6
Q 1880.7 2351.25 1877.55 2362.35 Z"/>

<path fill="#CCAE53" stroke="none" d="
M 2285.35 1853.3
Q 2288.6 1832.35 2290.9 1817.9
L 2267.85 1713.05
Q 2258.5 1760.6 2253.5 1797.25 2249.95 1822.65 2245.35 1846.8 2209.55 2026.95 2093.75 2141.95 2085.5 2148.45 2077.4 2155.05 2058.65 2179 2014.7 2203.4 1998.1 2215.3 1981.3 2227.55 1946.65 2295.1 1899 2342.5
L 1916.55 2349.05
Q 1918.55 2347.7 1920 2346.45 1903.4 2367 1897.8 2385.45 1891.9 2404.05 1897.8 2420.7 1906.05 2444.1 1937.3 2463.65 1944.1 2502.15 1954.15 2505.1 1929.95 2535.4 1925.6 2535.6 1881.9 2538.55 1886.5 2569 1888.127734375 2579.493359375 1887.05 2588.55 2095.82265625 2515.57421875 2269 2356.8 2275.4853515625 2299.8833984375 2327.15 2293.05 2331.7912109375 2292.2037109375 2335.95 2290.85 2361.2974609375 2282.5197265625 2368.6 2254.9 2373.9732421875 2234.6091796875 2369.6 2203.9 2354.95 2194.8 2344.4 2081.8 2297.85 2024.75 2285.65 1956.15 2276.9 1907.55 2285.35 1853.3
M 1268 2634.3
Q 1273.0609375 2632.0318359375 1278.1 2629.6 1314.58515625 2612.0048828125 1351.2 2585.4 1598.55 2609.35 1694.2 2513.4 1733.25 2499.25 1769.4 2484.1 1846.95 2444.75 1870.95 2383.3 1874.1 2375.05 1876.3 2366.4 1876.75 2364.55 1877.55 2362.35 1729.55 2488 1468.65 2438.75 1372.8001953125 2575.0982421875 1277 2629.35 1272.498046875 2631.9322265625 1268 2634.3 Z"/>

<path fill="#D3B764" stroke="none" d="
M 740.75 2109.4
Q 735.85 2114.8 732 2123.6 762.2 2222.5 839 2250.3 919.5 2331.5 1000.7 2286.85 1012.2 2280.55 1023.9 2271.5 1078.4 2277.85 1121.5 2262.45 1142.3 2244.9 1157.6 2235.45 1105.4 2221.2 1024.85 2174.9 1004.35 2112.85 880.35 2155.05 843.8 2117.75 807.9 2137.5 764.75 2082.05 740.75 2109.4 Z"/>

<path fill="#C5A954" stroke="none" d="
M 689.7 1840.4
Q 682.95 1860.4 679.9 1857.55 667.25 2017.9 740.75 2109.4 764.75 2082.05 807.9 2137.5 843.8 2117.75 880.35 2155.05 1004.35 2112.85 1024.85 2174.9 1105.4 2221.2 1157.6 2235.45 1142.3 2244.9 1121.5 2262.45 1078.4 2277.85 1023.9 2271.5 1012.2 2280.55 1000.7 2286.85 1049.55 2437 1134.9 2381.15 1201.65 2250.95 1340 2229.75 1553.4 2248.8 1669.3 2131.6 1512.35 2185.6 1388.65 2133.6 1260.25 2166.55 1123.5 2123.85 771.55 2135.75 689.7 1840.4 Z"/>

<path fill="#D9C074" stroke="none" d="
M 679.9 1857.55
Q 678.25 1855.75 677.85 1847 646.5 2093.1 742.05 2306.15 741.626171875 2332.2509765625 743.95 2357.3 978.0458984375 2571.6478515625 1277 2629.35 1372.8001953125 2575.0982421875 1468.65 2438.75 1729.55 2488 1877.55 2362.35 1880.7 2351.25 1886.1 2337.6
L 1899 2342.5
Q 1946.65 2295.1 1981.3 2227.55 1998.1 2215.3 2014.7 2203.4 2058.65 2179 2077.4 2155.05 2119.4 2100.95 2035.95 2046.9 2110.85 1903.15 1962.2 1961.05 1917.05 1978.35 1851.85 2014.2 1838.75 2016.1 1825.05 2017.4 1760.15 2105.5 1669.3 2131.6 1553.4 2248.8 1340 2229.75 1201.65 2250.95 1134.9 2381.15 1049.55 2437 1000.7 2286.85 919.5 2331.5 839 2250.3 762.2 2222.5 732 2123.6 735.85 2114.8 740.75 2109.4 667.25 2017.9 679.9 1857.55 Z"/>

<path fill="#F0DEA0" stroke="none" d="
M 657 1744.95
Q 657.3 1746.65 657.5 1748.4
L 691.7 1834.35
Q 690.75 1837.45 689.7 1840.4 771.55 2135.75 1123.5 2123.85 1260.25 2166.55 1388.65 2133.6 1394.95 2131.95 1401.35 2130.15 1297.3 2116.45 1188.7 2083.55 923.8 2073.3 894.3 1915.15 725.35 1873.4 639.5 1600.25 639.2 1604.6 639.5 1609 642.15 1674.45 657 1744.95 Z"/>

<path fill="#F3EDB6" stroke="none" d="
M 1167.9 1817.7
Q 1163.3 1817 1158.4 1816.75
L 1160.65 1818.75 1162.15 1818.9
Q 1165 1818.25 1167.9 1817.7 Z"/>

<path fill="#C4B05B" stroke="none" d="
M 1158.4 1816.75
Q 1163.3 1817 1167.9 1817.7 1168.15 1817.5 1168.4 1817.5 1204.8 1808.95 1302.4 1785.3 1307.8 1807.2 1306.35 1800.15 1304.6 1792.35 1334.4 1813.6 1342.7 1819.7 1342.25 1824.9 1345.4 1823.65 1348.8 1822.3 1353.45 1803.35 1341.25 1799.15 1323.95 1793.55 1319.25 1784.3 1313.25 1772.1 1313.25 1732.5 1313.25 1692.75 1306.65 1680.3 1305.6 1678.9 1305.6 1670.25 1303.85 1669.85 1302.4 1669.55
L 1306.05 1630.5
Q 1298.75 1671.75 1297.5 1670.85 1296.85 1670.25 1296.3 1669.85 1294.65 1670.85 1292.7 1671.75 1215.7 1712.5 1158.4 1816.75 Z"/>

<path fill="#BBA257" stroke="none" d="
M 1038.35 1892.9
Q 1020.45 1905.1 1009.75 1909.75 1033.45 1959.3 1098.6 1953.9 1224.05 1943.2 1255.05 1905.1 1252.4 1904.9 1249.7 1904.9 1221.1 1902.65 1202.35 1890.75 1193.6 1884.55 1189.45 1882.2 1182.6 1877.8 1175.95 1876.6 1142.3 1871 1081 1876.6 1059.3 1878.5 1038.35 1892.9 Z"/>

<path fill="#272413" stroke="none" d="
M 1127.65 1827.7
Q 1117.9 1832.65 1105.7 1831.7 1089.8 1829.9 1069.55 1818.5 1060.1 1813.1 1036.3 1794.8 1028.8 1789.4 1020 1782.35 1010.25 1774.75 967.75 1766.3 947.05 1761.8 919 1757.45
L 904.05 1778.5
Q 895 1784.75 929.9 1789.9 991.75 1793.05 1020.75 1817.7 1049.1 1842.6 1100.5 1856.55 1151.6 1870.5 1173.75 1858.5
L 1174 1858.25
Q 1201.15 1856.55 1282.65 1845.75 1341.05 1838 1342.25 1824.9 1342.7 1819.7 1334.4 1813.6 1304.6 1792.35 1306.35 1800.15 1307.8 1807.2 1302.4 1785.3 1204.8 1808.95 1168.4 1817.5 1168.15 1817.5 1167.9 1817.7 1165 1818.25 1162.15 1818.9 1129.4 1826.55 1127.65 1827.7
M 1447.4 1309.25
Q 1332.5 1428.9 1488.45 1530.75 1582.7 1547.55 1634.4 1524.85 1686.1 1501.95 1713.95 1424.95 1741.55 1347.8 1723.8 1298.5 1705.85 1249.2 1663.7 1225 1621.25 1200.4 1576.3 1170.35 1403 1218.5 1447.4 1309.25
M 1573.15 1222.35
Q 1589 1238.25 1589 1260.5 1589 1282.6 1569.25 1269.45 1549.2 1256.35 1530.4 1280.05 1511.65 1303.65 1496.7 1293.15 1481.55 1282.6 1481.55 1260.5 1481.55 1238.25 1497.3 1222.35 1513.1 1206.7 1535.3 1206.7 1557.55 1206.7 1573.15 1222.35
M 1052.5 1127.2
Q 1033.95 1127.95 1029.8 1126.9 935.05 1212.4 983.6 1240.95 908.65 1369.8 975.55 1423.75 985.85 1427.45 996.6 1429.7 1046.1 1439.15 1076.4 1401.95 1107.15 1364.4 1114.95 1291.75 1121.8 1224.35 1118.6 1190.1 1115.4 1156 1093.25 1141.3 1070.8 1126.4 1052.5 1127.2
M 1071.5 1167.7
Q 1089.1 1158.65 1097.35 1187.95 1105.7 1217 1104.45 1227.75 1103.25 1238.25 1089.3 1240.7 1075.45 1243.1 1062.95 1254.3 1050.55 1265.3 1039.05 1255.3 1027.65 1245.35 1027.65 1231.2 1027.65 1217 1040.8 1197 1053.9 1177 1071.5 1167.7 Z"/>

<path fill="#6F6541" stroke="none" d="
M 1088.8 1650.5
Q 1057.15 1692.3 996.6 1721.8 876.45 1690.35 878.9 1634.45
L 877.75 1636.6
Q 877.4 1637.1 877.4 1637.6 877.2 1638.1 876.95 1638.6 873.75 1644.9 870.85 1651.3 858.45 1682.05 862.8 1697.2 865.7 1707.15 884.8 1742.5 901.6 1773.3 901.6 1785.3 901.6 1799 909.95 1816.55 913.3 1823.8 926.1 1845.05 940.45 1868.7 958.25 1887.7 985.35 1916.35 1003.65 1912 1006.15 1911.2 1009.75 1909.75 1020.45 1905.1 1038.35 1892.9 1059.3 1878.5 1081 1876.6 1142.3 1871 1175.95 1876.6 1182.6 1877.8 1189.45 1882.2 1193.6 1884.55 1202.35 1890.75 1221.1 1902.65 1249.7 1904.9 1252.4 1904.9 1255.05 1905.1 1292 1907.55 1304.9 1903.65 1323.35 1897.75 1330.75 1873.15 1343.9 1838.95 1347.85 1825.5 1348.55 1823.8 1348.8 1822.3 1345.4 1823.65 1342.25 1824.9 1341.05 1838 1282.65 1845.75 1201.15 1856.55 1174 1858.25
L 1173.75 1858.5
Q 1151.6 1870.5 1100.5 1856.55 1049.1 1842.6 1020.75 1817.7 991.75 1793.05 929.9 1789.9 895 1784.75 904.05 1778.5
L 919 1757.45
Q 947.05 1761.8 967.75 1766.3 1010.25 1774.75 1020 1782.35 1028.8 1789.4 1036.3 1794.8 1060.1 1813.1 1069.55 1818.5 1089.8 1829.9 1105.7 1831.7 1117.9 1832.65 1127.65 1827.7 1129.4 1826.55 1162.15 1818.9
L 1160.65 1818.75 1151.35 1816.75
Q 1084.7 1804.55 1098.6 1792.55 1051.75 1754.5 1088.8 1650.5
M 1134 1744.5
Q 1136.95 1741.55 1136.95 1737.7 1136.95 1733.45 1134 1730.8 1131.1 1727.95 1128.6 1727.95 1125.95 1727.95 1123.2 1730.8 1120.35 1733.45 1118.85 1737.7 1117.4 1741.55 1120.35 1744.5 1123 1747.45 1127.15 1747.45 1131.1 1747.45 1134 1744.5
M 1134.3 1700.05
Q 1136.45 1699.85 1136.45 1695.9 1136.45 1691.8 1133.5 1689.1 1130.55 1686.15 1126.65 1686.15 1122.55 1686.15 1118.1 1687.4 1113.75 1688.55 1113.95 1692.95 1114.25 1697.2 1118.35 1701.3 1122.55 1705.25 1127.4 1702.7 1132.05 1700.35 1134.3 1700.05
M 1183.75 1698.35
Q 1187.65 1696.4 1184.85 1693.75 1181.9 1690.75 1177.95 1690.75 1173.75 1690.75 1171.1 1693.75 1168.15 1696.4 1168.15 1700.55 1168.15 1704.45 1171.1 1707.4 1173.75 1710.35 1176.7 1709.6 1179.45 1708.85 1179.65 1704.45 1179.9 1700.05 1183.75 1698.35
M 1494.3 806.9
L 1494.05 810.15
Q 1494.3 810.6 1494.3 813.3 1494.8 807.2 1494.3 806.9 Z"/>

<path fill="#CDC483" stroke="none" d="
M 1208.45 1559.95
Q 1197.2 1546.1 1179.45 1546.1 1154.75 1546.8 1142.05 1547.55 1132.05 1547.75 1123.5 1547.55 1122.55 1605.85 1088.8 1650.5 1051.75 1754.5 1098.6 1792.55 1084.7 1804.55 1151.35 1816.75
L 1160.65 1818.75 1158.4 1816.75
Q 1215.7 1712.5 1292.7 1671.75 1294.65 1670.85 1296.3 1669.85 1290.25 1665.65 1281.4 1662 1260.95 1653.15 1243.6 1635.35 1224.05 1614.9 1221.6 1595.45 1218.95 1573.1 1208.45 1559.95
M 1184.85 1693.75
Q 1187.65 1696.4 1183.75 1698.35 1179.9 1700.05 1179.65 1704.45 1179.45 1708.85 1176.7 1709.6 1173.75 1710.35 1171.1 1707.4 1168.15 1704.45 1168.15 1700.55 1168.15 1696.4 1171.1 1693.75 1173.75 1690.75 1177.95 1690.75 1181.9 1690.75 1184.85 1693.75
M 1136.45 1695.9
Q 1136.45 1699.85 1134.3 1700.05 1132.05 1700.35 1127.4 1702.7 1122.55 1705.25 1118.35 1701.3 1114.25 1697.2 1113.95 1692.95 1113.75 1688.55 1118.1 1687.4 1122.55 1686.15 1126.65 1686.15 1130.55 1686.15 1133.5 1689.1 1136.45 1691.8 1136.45 1695.9
M 1136.95 1737.7
Q 1136.95 1741.55 1134 1744.5 1131.1 1747.45 1127.15 1747.45 1123 1747.45 1120.35 1744.5 1117.4 1741.55 1118.85 1737.7 1120.35 1733.45 1123.2 1730.8 1125.95 1727.95 1128.6 1727.95 1131.1 1727.95 1134 1730.8 1136.95 1733.45 1136.95 1737.7 Z"/>

<path fill="#252312" stroke="none" d="
M 908.4 1524.85
L 901.6 1528.5
Q 897.7 1534.8 894.8 1541.45 878.5 1577.1 884 1623.45 882.05 1627.6 880.35 1631.5
L 878.9 1634.45
Q 876.45 1690.35 996.6 1721.8 1057.15 1692.3 1088.8 1650.5 1122.55 1605.85 1123.5 1547.55 1111.8 1547.25 1102.05 1546.1 1094.9 1545.1 1078.4 1537.25 1058.1 1528 1043.7 1523.55 1021.05 1517 994.15 1516 962.95 1523.35 927.55 1521.4
L 923.05 1522.1
Q 920.9 1522.4 918.75 1522.85 913.6 1523.85 908.4 1524.85 Z"/>

<path fill="#A37D36" stroke="none" d="
M 1068.35 737.5
L 1068.35 737.6
Q 1068.65 778.85 1059.5 800.1 1048.8 824.25 1025.9 845.7 1002.7 866.95 992.95 887.5 994.4 876.3 995.6 865.1
L 974.05 923.4
Q 994.6 906.1 1018.5 887.5 1074.15 844 1126.95 812.1 1079.55 800.8 1068.35 735.7 1068.1658203125 736.2982421875 1068.3 736.95
L 1068.3 737.05
Q 1068.3 737.2 1068.35 737.5 Z"/>

<path fill="#706440" stroke="none" d="
M 1002.7 729.3
L 978.5 729.3
Q 978.1 837.35 948.2 945.8 960.5 934.8 974.05 923.4
L 995.6 865.1
Q 1002.45 797.15 1002.7 729.3
M 2132.85 940.2
Q 2132.1 929.15 2131.6 918.75 2072.8 868.25 2002.2 923.1 1988.55 933.6 1974.7 948.05
L 1985.6 965.15
Q 2000.35 989.55 2018.65 1026.1 2036.95 1062.7 1997.85 1094.55 1985.6 1104.5 1969.3 1112.55
L 1955.15 1118.9 2003.95 1182.3 2016.45 1176.25 2062.05 1153.05
Q 2095.5 1134.05 2113 1117.85 2126.95 1105.25 2130.9 1094.55 2140.65 1068.4 2132.85 940.2 Z"/>

<path fill="#DBB65C" stroke="none" d="
M 1010.25 610.65
Q 999.55 602.4 999.55 630.6 1002.95 679.95 1002.7 729.3 1002.45 797.15 995.6 865.1 994.4 876.3 992.95 887.5 1002.7 866.95 1025.9 845.7 1048.8 824.25 1059.5 800.1 1068.65 778.85 1068.35 737.6
L 1068.35 737.5
Q 1068.3 737.2 1068.3 737.05
L 1068.3 736.95
Q 1053.021875 669.21015625 1018.3 619.9 1013.65 613.4 1010.25 610.65 Z"/>

<path fill="#B48E4A" stroke="none" d="
M 1026.65 584.5
Q 1026.15 584.3 1025.9 584.1 968.55 548.9 968.75 599.15 971.5 616.55 973.4 633.65 978.75 681.4 978.5 729.3
L 1002.7 729.3
Q 1002.95 679.95 999.55 630.6 999.55 602.4 1010.25 610.65 1013.65 613.4 1018.3 619.9 1053.021875 669.21015625 1068.3 736.95 1068.1658203125 736.2982421875 1068.35 735.7 1079.55 800.8 1126.95 812.1 1129.8 810.35 1133.05 808.35 1168.4 787.15 1194 775.95 1152.3 663.15 1026.65 584.5
M 1022.25 601.6
Q 1024.85 603.1 1028.3 605.55 1028.8 605.75 1028.8 605.55 1091.05 650.45 1146.9 732.25 1145.7 743.85 1145.7 765 1146.05 766.9 1146.05 768.85 1130.1 765.9 1100.5 717.1 1101.05 717.8 1108.85 703.95 1069.8 649.5 1054.4 640.25 1038.85 630.9 1037.1 629.45
L 1022.25 601.6 Z"/>

<path fill="#97691C" stroke="none" d="
M 1028.3 605.55
Q 1024.85 603.1 1022.25 601.6
L 1037.1 629.45
Q 1038.85 630.9 1054.4 640.25 1069.8 649.5 1108.85 703.95 1101.05 717.8 1100.5 717.1 1130.1 765.9 1146.05 768.85 1146.05 766.9 1145.7 765 1145.7 743.85 1146.9 732.25 1091.05 650.45 1028.8 605.55 1028.8 605.75 1028.3 605.55 Z"/>

<path fill="#957537" stroke="none" d="
M 2149.45 1281.2
L 2156.8 1196.3 2103.25 1202.1 2099.65 1156.2 2094.25 1244.85 2149.45 1281.2 Z"/>

<path fill="#CBB367" stroke="none" d="
M 2062.05 1153.05
L 2016.45 1176.25 2027.4 1319.25
Q 2035.25 1338.05 2042.05 1356.35 2117.45 1562.4 2047.65 1717.65 2039.55 1887.05 1962.2 1961.05 2110.85 1903.15 2035.95 2046.9 2119.4 2100.95 2077.4 2155.05 2085.5 2148.45 2093.75 2141.95 2209.55 2026.95 2245.35 1846.8 2249.95 1822.65 2253.5 1797.25 2258.5 1760.6 2267.85 1713.05 2270.3 1701.3 2272.65 1688.35 2285.65 1621.95 2214.15 1478.45 2190.2 1454.3 2179.95 1433.2 2168.65 1410.1 2163.8 1400.55 2162.85 1399.1 2162.35 1397.85 2166 1392.5 2168.55 1388.85 2171.1 1384.25 2172.35 1382.2 2183.1 1363.2 2192.35 1341.05 2193.4 1337.85 2194.6 1334.9 2177.5 1308.85 2146.5 1320.55 2137.65 1324 2127.95 1330
L 2149.45 1281.2 2094.25 1244.85 2099.65 1156.2 2103.25 1202.1
Q 2102.1 1144.75 2113 1117.85 2095.5 1134.05 2062.05 1153.05 Z"/>

<path fill="#DFCC88" stroke="none" d="
M 1889.7 1402.25
Q 1885.3 1507.25 1833.8 1574.3 1649.95 1743.1 1305.6 1670.25 1305.6 1678.9 1306.65 1680.3 1313.25 1692.75 1313.25 1732.5 1313.25 1772.1 1319.25 1784.3 1323.95 1793.55 1341.25 1799.15 1353.45 1803.35 1348.8 1822.3 1348.55 1823.8 1347.85 1825.5 1343.9 1838.95 1330.75 1873.15 1323.35 1897.75 1304.9 1903.65 1292 1907.55 1255.05 1905.1 1224.05 1943.2 1098.6 1953.9 1033.45 1959.3 1009.75 1909.75 1006.15 1911.2 1003.65 1912 985.35 1916.35 958.25 1887.7 940.45 1868.7 926.1 1845.05 913.3 1823.8 909.95 1816.55 901.6 1799 901.6 1785.3 901.6 1773.3 884.8 1742.5 865.7 1707.15 862.8 1697.2 858.45 1682.05 870.85 1651.3 873.75 1644.9 876.95 1638.6 877.2 1638.1 877.4 1637.6 877.4 1637.1 877.75 1636.6
L 878.9 1634.45 880.35 1631.5
Q 882.05 1627.6 884 1623.45 878.5 1577.1 894.8 1541.45 713.15 1551.65 771.55 1405
L 740 1366.9
Q 721.5 1402.55 700 1438.4 678.05 1474.8 664.1 1506.55 640.4 1560.15 639.5 1600.25 725.35 1873.4 894.3 1915.15 923.8 2073.3 1188.7 2083.55 1297.3 2116.45 1401.35 2130.15 1394.95 2131.95 1388.65 2133.6 1512.35 2185.6 1669.3 2131.6 1760.15 2105.5 1825.05 2017.4 1838.75 2016.1 1851.85 2014.2 1917.05 1978.35 1962.2 1961.05 2039.55 1887.05 2047.65 1717.65 2117.45 1562.4 2042.05 1356.35 1948.05 1304.15 1889.7 1402.25
M 1829.65 1686.9
Q 1851.7 1614.1 1910.7 1615.6 1932.9 1494.75 1998.55 1546.8 2025.7 1694.7 1946.05 1781.85 1890.2 1963.2 1723.5 1933.15 1701.05 1948.3 1678.55 1959.6 1635.6 1980.8 1592.45 1986.9 1554.4 1978.05 1527.95 1976.35 1585.85 1922.95 1657.85 1809.15 1642.7 1715.65 1829.65 1686.9 Z"/>

<path fill="#E8D48C" stroke="none" d="
M 1910.7 1615.6
Q 1851.7 1614.1 1829.65 1686.9 1642.7 1715.65 1657.85 1809.15 1585.85 1922.95 1527.95 1976.35 1554.4 1978.05 1592.45 1986.9 1635.6 1980.8 1678.55 1959.6 1701.05 1948.3 1723.5 1933.15 1890.2 1963.2 1946.05 1781.85 2025.7 1694.7 1998.55 1546.8 1932.9 1494.75 1910.7 1615.6 Z"/>

<path fill="#E3C472" stroke="none" d="
M 1301.25 1533.55
L 1302.7 1531.9 1225.05 1415.95
Q 1206.3 1386.65 1179.9 1298.7 1178.25 1318.8 1176.2 1314.45 1115.4 1487.2 994.15 1516 1021.05 1517 1043.7 1523.55 1058.1 1528 1078.4 1537.25 1094.9 1545.1 1102.05 1546.1 1111.8 1547.25 1123.5 1547.55 1132.05 1547.75 1142.05 1547.55 1154.75 1546.8 1179.45 1546.1 1197.2 1546.1 1208.45 1559.95 1218.95 1573.1 1221.6 1595.45 1224.05 1614.9 1243.6 1635.35 1260.95 1653.15 1281.4 1662 1290.25 1665.65 1296.3 1669.85 1296.85 1670.25 1297.5 1670.85 1298.75 1671.75 1306.05 1630.5
L 1302.4 1669.55 1302.7 1669.1
Q 1304.1 1666.6 1305.35 1664.25 1352.45 1574.2 1301.25 1533.55 Z"/>

<path fill="#A88643" stroke="none" d="
M 1437.6 853.3
Q 1427.2 855.75 1416.85 859.7 1351.45 884.05 1286.3 970.5 1212.35 1069.85 1183.6 1200.15
L 1188.95 1273.2 1200.9 1259.7 1261.9 1190.1 1315.6 1019.35
Q 1333.9 936.35 1437.6 853.3 Z"/>

<path fill="#E1CE87" stroke="none" d="
M 1931.6 790.5
L 1932.9 789.4
Q 1935.840625 786.6587890625 1938.75 784.25
L 1938.8 784.25
Q 1939 784 1939.25 783.75 1937.5 784.65 1935.85 785.95 1935.15 786.25 1934.65 786.65
L 1931.6 790.5 Z"/>

<path fill="#D5B458" stroke="none" d="
M 1589.2 778.35
Q 1587.25 785.45 1589 786.65 1560.4 790.35 1533.35 797.65 1532.6 800.8 1532.1 804 1531.4 807.95 1532.1 808.65 1513.8 812.3 1497.45 821.85 1496.7 813.05 1493.35 821.85 1493.85 818.15 1494.05 815.75
L 1494.05 815.55
Q 1494.05 814.75 1494.05 814.25
L 1494.3 813.3
Q 1494.3 810.6 1494.05 810.15 1493.85 810.6 1493.85 811.3 1493.85 811.5 1493.85 811.8 1493.55 813.3 1493.55 816.45 1493.55 817.5 1493.55 818.7
L 1493.55 818.9
Q 1492.35 817.6 1491.6 816.7 1480.15 833.85 1416.85 859.7 1427.2 855.75 1437.6 853.3 1333.9 936.35 1315.6 1019.35
L 1261.9 1190.1 1200.9 1259.7 1179.9 1298.7
Q 1206.3 1386.65 1225.05 1415.95
L 1302.7 1531.9 1301.25 1533.55
Q 1352.45 1574.2 1305.35 1664.25 1304.1 1666.6 1302.7 1669.1
L 1302.4 1669.55
Q 1303.85 1669.85 1305.6 1670.25 1649.95 1743.1 1833.8 1574.3 1885.3 1507.25 1889.7 1402.25 1948.05 1304.15 2042.05 1356.35 2035.25 1338.05 2027.4 1319.25
L 2016.45 1176.25 2003.95 1182.3 1955.15 1118.9 1969.3 1112.55
Q 1985.6 1104.5 1997.85 1094.55 2036.95 1062.7 2018.65 1026.1 2000.35 989.55 1985.6 965.15
L 1974.7 948.05 1890.7 1010.5 1831.85 1024.25 1856.5 940.5
Q 1898.75 845.5 1938.5 784.95 1935.55 787.15 1932.9 789.4
L 1931.6 790.5 1934.65 786.65
Q 1922.95 793.2 1904.6 801.3 1846.8 825.95 1776.45 806.7 1721.8 791.75 1589.2 778.35
M 1696.45 1109.85
Q 1732.5 1130.85 1749.65 1159.6 1767.15 1188.45 1763.7 1209.2 1760.35 1229.7 1764.3 1272.4 1768.4 1315.15 1733.25 1236.8 1698.1 1158.15 1606.8 1125.5 1515.75 1092.5 1532.9 1076.45 1549.95 1060.35 1605.15 1074.45 1660.5 1088.55 1696.45 1109.85
M 1419.3 1142.35
Q 1473.6 1120.8 1576.3 1170.35 1621.25 1200.4 1663.7 1225 1705.85 1249.2 1723.8 1298.5 1741.55 1347.8 1713.95 1424.95 1686.1 1501.95 1634.4 1524.85 1582.7 1547.55 1488.45 1530.75 1459.9 1527.2 1429.85 1519.25 1324.35 1490.6 1271.65 1416.7
L 1291.45 1379.85
Q 1292 1287.3 1328.55 1225.5 1365.15 1163.85 1419.3 1142.35 Z"/>

<path fill="#FFFFFF" stroke="none" d="
M 1589 1260.5
Q 1589 1238.25 1573.15 1222.35 1557.55 1206.7 1535.3 1206.7 1513.1 1206.7 1497.3 1222.35 1481.55 1238.25 1481.55 1260.5 1481.55 1282.6 1496.7 1293.15 1511.65 1303.65 1530.4 1280.05 1549.2 1256.35 1569.25 1269.45 1589 1282.6 1589 1260.5
M 1097.35 1187.95
Q 1089.1 1158.65 1071.5 1167.7 1053.9 1177 1040.8 1197 1027.65 1217 1027.65 1231.2 1027.65 1245.35 1039.05 1255.3 1050.55 1265.3 1062.95 1254.3 1075.45 1243.1 1089.3 1240.7 1103.25 1238.25 1104.45 1227.75 1105.7 1217 1097.35 1187.95 Z"/>

<path fill="#FAF7DD" stroke="none" d="
M 1576.3 1170.35
Q 1473.6 1120.8 1419.3 1142.35 1365.15 1163.85 1328.55 1225.5 1292 1287.3 1291.45 1379.85
L 1271.65 1416.7
Q 1324.35 1490.6 1429.85 1519.25 1459.9 1527.2 1488.45 1530.75 1332.5 1428.9 1447.4 1309.25 1403 1218.5 1576.3 1170.35
M 910.45 1211.6
Q 887.45 1237.5 871.85 1305.1 856.2 1372.75 888.9 1392.8 921.35 1412.75 975.55 1423.75 908.65 1369.8 983.6 1240.95 935.05 1212.4 1029.8 1126.9 974.35 1113.2 910.45 1211.6 Z"/>

<path fill="#E2C060" stroke="none" d="
M 1749.65 1159.6
Q 1732.5 1130.85 1696.45 1109.85 1660.5 1088.55 1605.15 1074.45 1549.95 1060.35 1532.9 1076.45 1515.75 1092.5 1606.8 1125.5 1698.1 1158.15 1733.25 1236.8 1768.4 1315.15 1764.3 1272.4 1760.35 1229.7 1763.7 1209.2 1767.15 1188.45 1749.65 1159.6 Z"/>

<path fill="#E1BD4C" stroke="none" d="
M 1548.7 666.8
Q 1551.85 659.8 1556.05 652.95 1505.25 670 1483.3 750.25 1471 727.35 1476.4 677.8 1473 682.9 1470.65 688.8 1454.3 724.4 1467.85 780.55 1469.55 788.1 1472.1 796.15 1472.8 798.9 1473.8 801.55 1479.35 802.75 1491.6 816.7 1492.35 817.6 1493.55 818.9
L 1493.55 818.7
Q 1493.55 817.5 1493.55 816.45 1493.55 813.3 1493.85 811.8 1493.85 811.5 1493.85 811.3 1493.85 810.6 1494.05 810.15
L 1494.3 806.9
Q 1494.8 807.2 1494.3 813.3
L 1494.05 814.25
Q 1494.05 814.75 1494.05 815.55
L 1494.05 815.75
Q 1493.85 818.15 1493.35 821.85 1496.7 813.05 1497.45 821.85 1513.8 812.3 1532.1 808.65 1531.4 807.95 1532.1 804 1532.6 800.8 1533.35 797.65 1541.15 762.25 1565.6 742 1548.7 730.95 1531.85 752.2 1529.45 707.1 1548.7 666.8 Z"/>

<path fill="#B09057" stroke="none" d="
M 1424.7 764.4
Q 1426.7 769.15 1429.05 773.95 1442 775.95 1467.85 780.55 1454.3 724.4 1470.65 688.8 1473 682.9 1476.4 677.8 1471 727.35 1483.3 750.25 1505.25 670 1556.05 652.95 1551.85 659.8 1548.7 666.8 1529.45 707.1 1531.85 752.2 1548.7 730.95 1565.6 742 1541.15 762.25 1533.35 797.65 1560.4 790.35 1589 786.65 1587.25 785.45 1589.2 778.35 1598.55 742.5 1621.45 714.85 1644.15 687.35 1680.55 667.8 1634.4 648.3 1588.3 686.35 1579.95 591.85 1654.7 509.1 1522.05 538.4 1461.1 670.2 1458.1 676.35 1455.5 682.7 1422.25 641.9 1436.9 553.55 1361.5 628.55 1424.7 764.4 Z"/>

<path fill="#E5C66C" stroke="none" d="
M 1429.05 773.95
Q 1426.7 769.15 1424.7 764.4 1269 754.2 1222.4 765.9 1210.1 769.15 1194 775.95 1168.4 787.15 1133.05 808.35 1129.8 810.35 1126.95 812.1 1074.15 844 1018.5 887.5 994.6 906.1 974.05 923.4 960.5 934.8 948.2 945.8 871.1 1015.1 852.55 1063.3 843.3 1087.35 827.65 1141.55 810.85 1200.15 800.8 1228.25 775.95 1297.35 740 1366.9
L 771.55 1405
Q 713.15 1551.65 894.8 1541.45 897.7 1534.8 901.6 1528.5
L 908.4 1524.85
Q 913.6 1523.85 918.75 1522.85 920.9 1522.4 923.05 1522.1
L 927.55 1521.4
Q 962.95 1523.35 994.15 1516 1115.4 1487.2 1176.2 1314.45 1178.25 1318.8 1179.9 1298.7
L 1200.9 1259.7 1188.95 1273.2 1183.6 1200.15
Q 1212.35 1069.85 1286.3 970.5 1351.45 884.05 1416.85 859.7 1480.15 833.85 1491.6 816.7 1479.35 802.75 1473.8 801.55 1472.8 798.9 1472.1 796.15 1469.55 788.1 1467.85 780.55 1442 775.95 1429.05 773.95
M 1029.8 1126.9
Q 1033.95 1127.95 1052.5 1127.2 1070.8 1126.4 1093.25 1141.3 1115.4 1156 1118.6 1190.1 1121.8 1224.35 1114.95 1291.75 1107.15 1364.4 1076.4 1401.95 1046.1 1439.15 996.6 1429.7 985.85 1427.45 975.55 1423.75 921.35 1412.75 888.9 1392.8 856.2 1372.75 871.85 1305.1 887.45 1237.5 910.45 1211.6 974.35 1113.2 1029.8 1126.9
M 1007.55 1020.3
Q 1062.7 1006.15 1079.85 1022.3 1096.85 1038.4 1005.85 1071.25 914.6 1104 879.4 1182.6 844.3 1260.95 848.4 1218.25 852.25 1175.45 848.95 1155 845.5 1134.3 863.05 1105.45 880.15 1076.65 916.25 1055.7 952.25 1034.45 1007.55 1020.3 Z"/>

<path fill="#EAD28C" stroke="none" d="
M 1079.85 1022.3
Q 1062.7 1006.15 1007.55 1020.3 952.25 1034.45 916.25 1055.7 880.15 1076.65 863.05 1105.45 845.5 1134.3 848.95 1155 852.25 1175.45 848.4 1218.25 844.3 1260.95 879.4 1182.6 914.6 1104 1005.85 1071.25 1096.85 1038.4 1079.85 1022.3 Z"/>

<path fill="#B59941" stroke="none" d="
M 2128.95 650
Q 2119.4 638 2110.15 632.15
L 2076.45 736.7
Q 2110.15 726.65 2116.2 767.35 2125 824.1 2131.6 918.75 2132.1 929.15 2132.85 940.2 2140.65 1068.4 2130.9 1094.55 2126.95 1105.25 2113 1117.85 2102.1 1144.75 2103.25 1202.1
L 2156.8 1196.3 2149.45 1281.2 2127.95 1330
Q 2137.65 1324 2146.5 1320.55 2177.5 1308.85 2194.6 1334.9 2202.45 1313.85 2208.75 1290 2223.1 1234.8 2223.1 1186.55 2223.1 1102.5 2197.75 920.9 2180.65 799.4 2161.9 729.8 2146 671.4 2128.95 650 Z"/>

<path fill="#C19D3D" stroke="none" d="
M 2076.45 736.7
Q 2072.6 737.6 2068.65 739.3 2050.85 746.9 2034.45 762.25 2015.7 779.35 1999.05 806.4 1981.3 835.7 1934.15 931.95 1933.7 932.4 1933.4 935.6
L 1890.7 1010.5 1974.7 948.05
Q 1988.55 933.6 2002.2 923.1 2072.8 868.25 2131.6 918.75 2125 824.1 2116.2 767.35 2110.15 726.65 2076.45 736.7 Z"/>

<path fill="#DDC785" stroke="none" d="
M 2755.8 2647.4
Q 2766.75 2646.15 2783.9 2636.65 2799.2 2627.9 2819.45 2612.75 2777.3 2637.15 2754 2644.7 2747.2 2646.9 2742.1 2647.65 2747.2 2648.35 2755.8 2647.4 Z"/>
</g>

<g id="Layer4_0_FILL">
<path fill="#88E2EA" stroke="none" d="
M 3640.4 2325.35
Q 3738.15 2303.7 3828.35 2278.35 3958.6 2241.65 4060.85 2201.55 4419.95 2060.75 4432.75 1878.1 4440.6 1766.4 4318.35 1669.95 4183.75 1563.8 3891.7 1476.1 3334 1308.65 2521.7 1308.6 1709.25 1308.5 1159.75 1440.65 970.75 1486.1 843.8 1546.7 831.95 1552.35 820.55 1558.15 600.85 1670.55 585.25 1832.7 565.95 2033.6 820.55 2186.45 822.35 2187.55 824.15 2188.6 833.8 2194.35 843.8 2200 910.15 2237.45 993.5 2271.95 1426.8 2451.35 2333.55 2447.6 3101.3 2444.45 3640.4 2325.35
M 3993.7 1718.15
Q 4093.2 1768.6 4125 1817.8 4199.5 1933.05 3650.35 2091.25 3101.15 2249.45 2428.25 2249.9 1755.3 2250.25 1279.95 2136.8 1259.4 2131.9 1239.75 2126.9 935.15 2049.6 843.8 1951.2 829.65 1935.95 820.55 1920.2 804.65 1892.4 804.65 1863 804.65 1834.2 820.55 1806.75 829.65 1791.2 843.8 1776.1 944.05 1668.95 1300.75 1582.9 1796.95 1463.15 2477.7 1460.6 3158.45 1457.95 3604.45 1580.25 3860.1 1650.35 3993.7 1718.15 Z"/>

<path fill="#92EFF8" stroke="none" d="
M 4125 1817.8
Q 4093.2 1768.6 3993.7 1718.15 3860.1 1650.35 3604.45 1580.25 3158.45 1457.95 2477.7 1460.6 1796.95 1463.15 1300.75 1582.9 944.05 1668.95 843.8 1776.1 829.65 1791.2 820.55 1806.75 804.65 1834.2 804.65 1863 804.65 1892.4 820.55 1920.2 829.65 1935.95 843.8 1951.2 935.15 2049.6 1239.75 2126.9 1259.4 2131.9 1279.95 2136.8 1755.3 2250.25 2428.25 2249.9 3101.15 2249.45 3650.35 2091.25 4199.5 1933.05 4125 1817.8
M 3522.65 1788.05
Q 3524.2 1795.05 3524.2 1802.2 3524.2 1906 3195.7 1979.35 2867.15 2052.75 2402.55 2052.75 2131.8 2052.75 1907.25 2027.85 1746.5 2010 1609.4 1979.35 1280.95 1906 1280.95 1802.2 1280.95 1698.45 1609.4 1625.05 1937.95 1551.65 2402.55 1551.65 2867.15 1551.65 3195.7 1625.05 3501.55 1693.35 3522.65 1788.05 Z"/>

<path fill="#AAF7FE" stroke="none" d="
M 3524.2 1802.2
Q 3524.2 1795.05 3522.65 1788.05 3501.55 1693.35 3195.7 1625.05 2867.15 1551.65 2402.55 1551.65 1937.95 1551.65 1609.4 1625.05 1280.95 1698.45 1280.95 1802.2 1280.95 1906 1609.4 1979.35 1746.5 2010 1907.25 2027.85 2131.8 2052.75 2402.55 2052.75 2867.15 2052.75 3195.7 1979.35 3524.2 1906 3524.2 1802.2 Z"/>
</g>

<g id="couch_0_Layer0_0_FILL">
<path fill="#96ABBD" stroke="none" d="
M -17.1 -10.2
L -13.5 -10.2
Q -15.35 -10.35 -15.45 -12.85 -15.45 -10.7 -17.1 -10.2
M 23.05 -10.2
Q 21.65 -10.3 21.65 -12.75 21.55 -10.35 19.7 -10.2
L 23.05 -10.2 Z"/>

<path fill="#C8DDEF" stroke="none" d="
M -57.5 -27.75
L -65.95 -27.75 -65.95 -15.35 -65.95 5.55
Q -61.7 6.8 -57.5 5.55
L -57.5 4.75 -57.5 -27.75
M -53.95 -35.8
L -54 -36.3
Q -57.0849609375 -37.4666015625 -61.05 -37.05 -63.45 -37.4 -67.1 -33.25
L -68.65 -30.9 -68.65 -30.6
Q -61.25 -32.35 -55.1 -30.6
L -53.95 -35.8
M 72.15 -27.75
L 63.7 -27.75 63.7 4.75 63.7 5.55
Q 67.9 6.8 72.15 5.55
L 72.15 -15.35 72.15 -27.75
M 61.35 -30.4
L 61.35 -30.25
Q 67.4 -31.95 74.85 -30.75
L 74.85 -30.9 73.3 -33.25
Q 69.65 -37.4 67.25 -37.05 63.725 -37.5294921875 60.2 -36.3
L 60.15 -35.8 61.35 -30.4
M 30.35 -17.1
Q 22.7328125 -17.4412109375 21.65 -19.9 3.85 -15.3 -15.45 -18.3 -35.45 -12.75 -55.5 -16.55 -55.5 -13.3 -54.5 -10.2
L -17.1 -10.2
Q -15.45 -10.7 -15.45 -12.85 -15.35 -10.35 -13.5 -10.2
L 19.7 -10.2
Q 21.55 -10.35 21.65 -12.75 21.65 -10.3 23.05 -10.2
L 60.7 -10.2
Q 61.1 -11.4 61.35 -12.65 42.65 -13.55 30.35 -17.1
M 67.2 -52.25
Q 67.4 -54.8 65 -56.2 2.85 -59.65 -58.8 -56.2 -61.2 -54.8 -61 -52.25
L -61 -39.45
Q -50.619140625 -45.5771484375 -39.55 -41.55
L -39.55 -43.75
Q -38.05 -42.55 -36.45 -42.2 -36.35 -42.55 -36.05 -42.75 -35.75 -43.05 -35.35 -43.1 -35.7 -44.7 -36.9 -46.45
L -33.2 -46.45
Q -34.15 -44.7 -34.35 -43 -34.15 -42.95 -34 -42.75 -33.75 -42.55 -33.6 -42.25 -32.1 -42.65 -30.5 -43.75
L -30.5 -42.45
Q -14.4328125 -50.0169921875 0.9 -45.55 0.8623046875 -45.6078125 0.8 -45.7
L 2.8 -45.7
Q 33.1953125 -57.971875 67.2 -52.05
L 67.2 -52.25 Z"/>

<path fill="#B4CBDE" stroke="none" d="
M 23.05 -10.2
L 19.7 -10.2 -13.5 -10.2 -17.1 -10.2 -54.5 -10.2
Q -55.5 -13.3 -55.5 -16.55 -55.45 -18.95 -54.85 -21.45
L -55.15 -30.4 -55.1 -30.6
Q -61.25 -32.35 -68.65 -30.6
L -69.3 -16.7
Q -69.1 -16.3 -68.8 -15.95 -67.8 -14.75 -65.95 -15.35
L -65.95 -27.75 -57.5 -27.75 -57.5 4.75 63.7 4.75 63.7 -27.75 72.15 -27.75 72.15 -15.35
Q 74.45 -14.55 75.5 -16.7
L 74.85 -30.75
Q 67.4 -31.95 61.35 -30.25
L 61.05 -21.45
Q 62.1 -16.9 61.35 -12.65 61.1 -11.4 60.7 -10.2
L 23.05 -10.2
M 2.8 -45.7
L 4.45 -45.7
Q 3.55 -44 3.3 -42.25 3 -42.4 2.65 -42.4 2.45 -42.4 2.35 -42.35 1.9716796875 -43.910546875 0.9 -45.55 -14.4328125 -50.0169921875 -30.5 -42.45
L -30.5 -40.1
Q -32.1 -40.95 -33.7 -41.2 -33.5 -41.5 -33.5 -41.85 -33.5 -41.9947265625 -33.55 -42.15 -33.5724609375 -42.1947265625 -33.6 -42.25 -33.75 -42.55 -34 -42.75 -34.15 -42.95 -34.35 -43 -34.65 -43.15 -35 -43.15 -35.2 -43.15 -35.35 -43.1 -35.75 -43.05 -36.05 -42.75 -36.35 -42.55 -36.45 -42.2 -36.5 -42.05 -36.5 -41.85 -36.5 -41.5 -36.35 -41.25 -38 -41 -39.55 -40.1
L -39.55 -41.55
Q -50.619140625 -45.5771484375 -61 -39.45
L -61 -37.1 -61.05 -37.05
Q -57.0849609375 -37.4666015625 -54 -36.3
L -53.85 -36.3 -53.95 -35.8
Q -52.9 -30.8 -52.65 -25.15
L -52.6 -25.3 -52.15 -25.05
Q -52 -25.05 -52 -25 -34.4 -28.15 -15.55 -25.3 3.1 -27 21.75 -25.3 39.8 -27.35 57.85 -25.3
L 59.15 -25.1
Q 59.05 -30.55 60.15 -35.8
L 60.05 -36.3 60.2 -36.3
Q 63.725 -37.5294921875 67.25 -37.05
L 67.2 -37.1 67.2 -52.05
Q 33.1953125 -57.971875 2.8 -45.7
M 37.85 -39.1
L 37.85 -42.75
Q 39.35 -41.55 40.95 -41.2 40.95 -41.05 40.95 -40.85 40.95 -40.5 41.05 -40.3 39.4 -40 37.85 -39.1
M 4.15 -41.1
Q 4.15 -41.3 4.05 -41.55 5.55 -41.95 7.15 -43
L 7.15 -39.35
Q 5.55 -40.2 3.95 -40.45 4.15 -40.75 4.15 -41.1
M 1.2 -41.1
Q 1.2 -40.75 1.3 -40.5 -0.35 -40.25 -1.9 -39.35
L -1.9 -43
Q -0.4 -41.8 1.2 -41.45 1.2 -41.3 1.2 -41.1
M 2.35 -39.8
Q 2.5 -39.75 2.65 -39.75 3 -39.75 3.3 -39.9 3.55 -38.25 4.45 -36.6
L 0.8 -36.6
Q 2 -38.15 2.35 -39.8
M 40.55 -45.45
L 44.2 -45.45
Q 43.3 -43.75 43.05 -42.05 42.75 -42.15 42.4 -42.15 42.2 -42.15 42.05 -42.15 41.7 -43.75 40.55 -45.45
M 43.9 -40.85
Q 43.9 -41.1 43.8 -41.3 45.3 -41.7 46.9 -42.75
L 46.9 -39.1
Q 45.3 -40 43.7 -40.2 43.9 -40.5 43.9 -40.85
M 42.05 -39.55
Q 42.25 -39.5 42.4 -39.5 42.75 -39.5 43.05 -39.65 43.3 -38 44.2 -36.4
L 40.55 -36.4
Q 41.75 -37.95 42.05 -39.55
M -35 -40.5
Q -34.65 -40.5 -34.35 -40.6 -34.1 -38.95 -33.2 -37.35
L -36.9 -37.35
Q -35.65 -38.9 -35.35 -40.5 -35.15 -40.5 -35 -40.5 Z"/>

<path fill="#ACC4D8" stroke="none" d="
M 21.65 -19.9
Q 22.7328125 -17.4412109375 30.35 -17.1 42.65 -13.55 61.35 -12.65 62.1 -16.9 61.05 -21.45
L 61.35 -30.25 61.35 -30.4 60.15 -35.8
Q 59.05 -30.55 59.15 -25.1
L 57.85 -25.3
Q 39.8 -27.35 21.75 -25.3 3.1 -27 -15.55 -25.3 -34.4 -28.15 -52 -25
L -52.65 -25
Q -52.684375 -25.06875 -52.7 -25.15
L -52.65 -25.15
Q -52.9 -30.8 -53.95 -35.8
L -55.1 -30.6 -55.15 -30.4 -54.85 -21.45
Q -55.45 -18.95 -55.5 -16.55 -35.45 -12.75 -15.45 -18.3 3.85 -15.3 21.65 -19.9 Z"/>

<path fill="#9FB6C9" stroke="none" d="
M -34.35 -40.6
Q -34.65 -40.5 -35 -40.5 -35.15 -40.5 -35.35 -40.5 -35.65 -38.9 -36.9 -37.35
L -33.2 -37.35
Q -34.1 -38.95 -34.35 -40.6
M 42.4 -39.5
Q 42.25 -39.5 42.05 -39.55 41.75 -37.95 40.55 -36.4
L 44.2 -36.4
Q 43.3 -38 43.05 -39.65 42.75 -39.5 42.4 -39.5
M 43.8 -41.3
Q 43.9 -41.1 43.9 -40.85 43.9 -40.5 43.7 -40.2 45.3 -40 46.9 -39.1
L 46.9 -42.75
Q 45.3 -41.7 43.8 -41.3
M 44.2 -45.45
L 40.55 -45.45
Q 41.7 -43.75 42.05 -42.15 42.2 -42.15 42.4 -42.15 42.75 -42.15 43.05 -42.05 43.3 -43.75 44.2 -45.45
M 2.65 -39.75
Q 2.5 -39.75 2.35 -39.8 2 -38.15 0.8 -36.6
L 4.45 -36.6
Q 3.55 -38.25 3.3 -39.9 3 -39.75 2.65 -39.75
M 1.3 -40.5
Q 1.2 -40.75 1.2 -41.1 1.2 -41.3 1.2 -41.45 -0.4 -41.8 -1.9 -43
L -1.9 -39.35
Q -0.35 -40.25 1.3 -40.5
M 4.05 -41.55
Q 4.15 -41.3 4.15 -41.1 4.15 -40.75 3.95 -40.45 5.55 -40.2 7.15 -39.35
L 7.15 -43
Q 5.55 -41.95 4.05 -41.55
M 37.85 -42.75
L 37.85 -39.1
Q 39.4 -40 41.05 -40.3 40.95 -40.5 40.95 -40.85 40.95 -41.05 40.95 -41.2 39.35 -41.55 37.85 -42.75
M -35 -43.15
Q -34.65 -43.15 -34.35 -43 -34.15 -44.7 -33.2 -46.45
L -36.9 -46.45
Q -35.7 -44.7 -35.35 -43.1 -35.2 -43.15 -35 -43.15
M -33.55 -42.15
Q -33.5 -41.9947265625 -33.5 -41.85 -33.5 -41.5 -33.7 -41.2 -32.1 -40.95 -30.5 -40.1
L -30.5 -42.45 -30.5 -43.75
Q -32.1 -42.65 -33.6 -42.25 -33.5724609375 -42.1947265625 -33.55 -42.15
M -36.5 -41.85
Q -36.5 -42.05 -36.45 -42.2 -38.05 -42.55 -39.55 -43.75
L -39.55 -41.55 -39.55 -40.1
Q -38 -41 -36.35 -41.25 -36.5 -41.5 -36.5 -41.85
M 0.8 -45.7
Q 0.8623046875 -45.6078125 0.9 -45.55 1.9716796875 -43.910546875 2.35 -42.35 2.45 -42.4 2.65 -42.4 3 -42.4 3.3 -42.25 3.55 -44 4.45 -45.7
L 2.8 -45.7 0.8 -45.7 Z"/>
</g>

<g id="Symbol_1_0_Layer0_0_FILL">
<path fill="#D3A63C" stroke="none" d="
M 812.5 140.3
Q 812.35 139.95 812.25 139.7 809.4 143.45 806.75 147.65 811.55 142.1 812.5 140.3
M 872.35 74.9
Q 868.45 79.95 858.8 97 853 107.2 848.6 113.1 846.7 115.5 844.95 117.25 843 119.3 840.55 121.3 839.35 122.25 810.5 146.25 808.85 148 805.95 150.05 805.55 150.25 805 150.55 804.7 150.65 804.45 150.95 804.3 151.1 804.2 151.2 804.05 151.4 804.05 151.6 782.15 184.9 758.95 237.1
L 745.4 283.15 777.75 275.6 801.25 234.45
Q 801.4 232.65 801.65 232.4 827.55 179.5 837.3 163.4 846.45 148.55 856.75 139.15 865.75 130.7 875.55 126.5 877.75 125.6 879.85 125.1
L 898.4 67.6
Q 884.5 58.75 872.35 74.9 Z"/>

<path fill="#D9C074" stroke="none" d="
M 729.85 1345.3
Q 735.5 1344.65 740.55 1344
L 746.9 1333.4
Q 733.6 1340.4 719.15 1346.8 748.35 1339.6 729.85 1345.3
M 112.25 741.2
Q 111.3 740.2 111.1 735.4 93.9 870.65 146.4 987.75 145.55 1040.25 164.85 1085.2 199.05 1118.6 314.6 1171.85 332.35 1180 350 1183.1 392.75 1186.9 435.5 1168.1 490.6 1139.1 545.75 1060.65 689.15 1087.7 770.5 1018.65 772.25 1012.55 775.2 1005.05
L 782.35 1007.75
Q 808.5 981.7 827.55 944.55 836.8 937.85 845.9 931.3 870.05 917.85 880.4 904.7 903.45 874.95 857.6 845.25 898.75 766.25 817.05 798.05 792.25 807.6 756.4 827.25 749.2 828.35 741.65 829.05 706 877.5 656.05 891.8 592.35 956.25 475.05 945.75 399 957.4 362.35 1029 315.4 1059.7 288.55 977.15 243.9 1001.7 199.65 957.05 157.45 941.8 140.85 887.45 143 882.55 145.65 879.6 105.3 829.3 112.25 741.2 Z"/>

<path fill="#DDC785" stroke="none" d="
M 1252.3 1173.85
Q 1248.55 1175.05 1245.75 1175.45 1248.55 1175.85 1253.3 1175.35 1259.3 1174.65 1268.7 1169.4 1277.1 1164.6 1288.25 1156.3 1265.1 1169.7 1252.3 1173.85
M 1387.05 716.3
Q 1375.1 696.2 1361.25 677.45 1438.9 978.75 1257.8 963.5 1285.9 1059.15 1255.55 1142.85 1283.45 1093.25 1308.25 1077.15 1391.3 1068.95 1400.05 846.75 1405 861.95 1408.5 877.9 1414.8 906.85 1416.15 937.7 1417.9 975.55 1411.15 1007.5 1406.45 1029.6 1400.6 1049.9 1404.3 1045.5 1407.8 1041.2 1441.9 999.45 1443.95 973.7 1446.85 933.45 1444.15 889.3 1441.35 843.95 1423.25 793.9 1408.5 752.85 1387.05 716.3 Z"/>

<path fill="#C4A440" stroke="none" d="
M 1116 930.35
Q 1108.1 926.45 1100.7 922.55 1053.75 896.95 1027.15 864.45 1032.95 926.55 1041 931.55 1043.3 982.8 1066.75 1026.15 1090.25 1069.5 1063.7 1144.6 1036.85 1219.7 1006.5 1201.75 976.05 1183.75 949.5 1175.05 937.7 1171.3 881.6 1211.8 878.65 1211.4 801.1 1242.8
L 831.55 1235.7
Q 831.3 1236.55 831.3 1237.5 821.35 1294.45 746.9 1333.4
L 740.55 1344
Q 782.7 1338.85 793.05 1340.9 818 1345.85 913.65 1331.95 953.9 1326.05 990.65 1319.6 1272.55 1233.05 1118.5 931 1117.2 930.6 1116 930.35
M 47.75 1325.45
Q 54.85 1330.3 57.25 1332.5 57.5 1332.7 57.9 1332.95 56.85 1333.3 55.95 1333.8 54.15 1331.1 38.6 1340.6 17 1353.9 10.2 1358.65 15.7 1371.65 28.15 1375.9 40.5 1380.2 66.9 1380.6
L 66.5 1379.55
Q 67.75 1378.35 68.65 1377 69.75 1375.5 70.7 1373.1 71.2 1371.9 72.45 1368.9 74.95 1362.8 80.05 1356.75 80.6 1356.35 81.15 1355.7 87.75 1348.15 90.4 1346.4 94.45 1344.25 97.8 1348.15 103.05 1352.95 104.75 1355.1 105 1355.4 105.15 1355.7 104.5 1355.95 103.7 1356.5 102.5 1353.8 90.9 1363.3 75.1 1376.45 69.85 1381.3 74.95 1382.8 84.6 1388.15 94.15 1393.5 115.85 1388.3 146.05 1385.85 258.3 1346.25 151.75 1242.4 180.55 1134.9 157.9 1209.3 95.5 1257.15
L 39.7 1297.05
Q -13.4 1332.55 4.55 1357 7.9 1355.05 8.55 1354.3 10.2 1352.85 11.4 1350.45 12.05 1349.2 13.65 1346.25 17 1340.05 23.95 1334.05 24.75 1333.65 25.3 1332.95 34.3 1325.45 37.95 1323.7 43.3 1321.6 47.75 1325.45 Z"/>

<path fill="#B69940" stroke="none" d="
M 1041 931.55
Q 1021.25 979.95 1017.65 980.55 981.7 985.3 985.55 1034.2 989.3 1082.9 974.85 1112.4 960.25 1141.95 940.1 1147.85 919.95 1153.6 881.6 1211.8 937.7 1171.3 949.5 1175.05 976.05 1183.75 1006.5 1201.75 1036.85 1219.7 1063.7 1144.6 1090.25 1069.5 1066.75 1026.15 1043.3 982.8 1041 931.55 Z"/>

<path fill="#B29B59" stroke="none" d="
M 1257.8 963.5
Q 1251.65 942.8 1248.25 878.6 1207.9 953.65 1118.5 931 1272.55 1233.05 990.65 1319.6 997.55 1318.2 1004.4 1317
L 1048.25 1312.6
Q 1109.85 1305.6 1147.95 1293.25 1186 1280.8 1206.8 1245.65 1227.6 1210.35 1235.5 1189.45
L 1242.25 1175.6
Q 1242 1175.45 1241.85 1175.45 1238.9 1174.95 1237.3 1174.25 1236.35 1173.6 1235.65 1173
L 1245.85 1159.8
Q 1244.8 1160.6 1243.85 1161.2 1250.15 1152.25 1255.55 1142.85 1285.9 1059.15 1257.8 963.5 Z"/>

<path fill="#D6C171" stroke="none" d="
M 406.35 1432.25
Q 411.2 1443.15 432 1446.9 452.65 1450.65 475.75 1459.25 498.65 1467.7 523.4 1458.05 548.05 1448.2 549.9 1436.55
L 604.8 1417.25
Q 655.25 1397.25 673.1 1381.4 675.65 1379.15 677.55 1376.85 695.35 1355.95 729.25 1345.45 724.2 1346.05 719.15 1346.8 733.6 1340.4 746.9 1333.4 821.35 1294.45 831.3 1237.5 585.65 1380.1 427.4 1384.5 424.6 1387.3 421 1391.9 405.2 1411.75 400.35 1418.45
L 400.05 1418.6
Q 399.65 1418.85 399.1 1419.35 401.55 1421.1 406.35 1432.25
M 451.45 1431.7
Q 452.15 1424.75 455.5 1417.35 455.9 1416.85 456.15 1416.15 460.45 1406.9 462.6 1404.35 465.65 1401.15 469.8 1404.5 475.85 1408.4 478.05 1410.15 478.3 1410.25 478.7 1410.7 478.05 1411.05 477.5 1411.65 477.5 1410.95 467 1425.55 456.7 1440.15 452 1445.25
L 451.85 1445.2
Q 451.2 1445.7 450.1 1446.9
L 448.5 1444.25
Q 449.3 1442.6 449.85 1441 450.5 1439.1 450.8 1436.4 450.9 1434.95 451.45 1431.7 Z"/>

<path fill="#6F6541" stroke="none" d="
M 455.5 1417.35
Q 452.15 1424.75 451.45 1431.7 450.9 1434.95 450.8 1436.4 450.5 1439.1 449.85 1441 449.3 1442.6 448.5 1444.25
L 450.1 1446.9
Q 451.2 1445.7 451.85 1445.2
L 452 1445.25
Q 456.7 1440.15 467 1425.55 477.5 1410.95 477.5 1411.65 478.05 1411.05 478.7 1410.7 478.3 1410.25 478.05 1410.15 475.85 1408.4 469.8 1404.5 465.65 1401.15 462.6 1404.35 460.45 1406.9 456.15 1416.15 455.9 1416.85 455.5 1417.35
M 414.55 1376.2
Q 412.55 1378.35 408.8 1384.5 407.45 1386.55 405.85 1389.2 405.45 1390.05 405.05 1390.65 400.45 1398.7 399.5 1405.65 399 1408.95 398.6 1410.4 398.3 1412.95 397.4 1415 397 1415.9 396.45 1416.95 395.9 1417.65 395.5 1418.45
L 400.45 1415.2
Q 398.45 1419.9 399.1 1419.35 399.65 1418.85 400.05 1418.6
L 400.35 1418.45
Q 405.2 1411.75 421 1391.9 424.6 1387.3 427.4 1384.5 433.05 1378.25 434.85 1379.55 435.5 1378.6 436.4 1378.25 436.05 1377.8 435.6 1377.8 432.65 1376.6 424.45 1374.45 418.85 1372.3 414.55 1376.2
M 67.65 1382.35
Q 68.65 1381.55 69.6 1381.3
L 69.85 1381.3
Q 75.1 1376.45 90.9 1363.3 102.5 1353.8 103.7 1356.5 104.5 1355.95 105.15 1355.7 105 1355.4 104.75 1355.1 103.05 1352.95 97.8 1348.15 94.45 1344.25 90.4 1346.4 87.75 1348.15 81.15 1355.7 80.6 1356.35 80.05 1356.75 74.95 1362.8 72.45 1368.9 71.2 1371.9 70.7 1373.1 69.75 1375.5 68.65 1377 67.75 1378.35 66.5 1379.55
L 66.9 1380.6 67.65 1382.35
M 57.25 1332.5
Q 54.85 1330.3 47.75 1325.45 43.3 1321.6 37.95 1323.7 34.3 1325.45 25.3 1332.95 24.75 1333.65 23.95 1334.05 17 1340.05 13.65 1346.25 12.05 1349.2 11.4 1350.45 10.2 1352.85 8.55 1354.3 7.9 1355.05 4.55 1357 6.4 1356.2 5.6 1356.85
L 7.1 1359.7
Q 8.7 1358.85 9.9 1358.65
L 10.2 1358.65
Q 17 1353.9 38.6 1340.6 54.15 1331.1 55.95 1333.8 56.85 1333.3 57.9 1332.95 57.5 1332.7 57.25 1332.5
M 386.9 657.05
Q 387.05 654.6 389.15 653.65 391.3 652.6 389.75 651.15 388.15 649.5 386 649.5 383.7 649.5 382.25 651.15 380.6 652.6 380.6 654.9 380.6 657.05 382.25 658.65 383.7 660.25 385.3 659.85 386.8 659.45 386.9 657.05
M 361.8 679.05
Q 363.45 677.45 363.45 675.3 363.45 672.95 361.8 671.5 360.25 669.95 358.85 669.95 357.4 669.95 355.9 671.5 354.3 672.95 353.5 675.3 352.7 677.45 354.3 679.05 355.8 680.65 358.05 680.65 360.25 680.65 361.8 679.05
M 357.8 646.95
Q 355.55 646.95 353.1 647.65 350.7 648.3 350.8 650.7 350.95 653.05 353.2 655.3 355.55 657.45 358.2 656.1 360.75 654.8 362 654.6 363.15 654.5 363.15 652.35 363.15 650.1 361.55 648.6 359.95 646.95 357.8 646.95
M 243.65 686.15
Q 259.05 688.55 270.45 691 293.8 695.65 299.2 699.85 304 703.7 308.15 706.7 321.2 716.75 326.4 719.7 337.55 726 346.25 726.95 353 727.5 358.35 724.75 359.3 724.15 377.3 719.95
L 376.45 719.85 371.35 718.75
Q 334.75 712.05 342.35 705.45 316.6 684.55 337 627.4 319.6 650.35 286.3 666.6 220.25 649.3 221.6 618.55
L 221 619.7
Q 220.8 620 220.8 620.3 220.65 620.55 220.55 620.85 218.75 624.3 217.2 627.8 210.35 644.7 212.75 653.05 214.35 658.55 224.85 677.95 234.1 694.9 234.1 701.45 234.1 709 238.65 718.65 240.5 722.65 247.55 734.3 255.45 747.3 265.25 757.75 280.1 773.5 290.2 771.1 291.55 770.65 293.55 769.9 299.4 767.3 309.25 760.6 320.75 752.7 332.7 751.65 366.4 748.55 384.85 751.65 388.55 752.3 392.3 754.7 394.6 756 399.4 759.4 409.7 765.95 425.4 767.2 426.9 767.2 428.35 767.3 448.65 768.65 455.75 766.5 465.9 763.3 470 749.75 477.2 730.95 479.35 723.6 479.75 722.65 479.9 721.8 478.05 722.55 476.3 723.2 475.6 730.45 443.55 734.7 398.75 740.65 383.8 741.6
L 383.7 741.7
Q 371.5 748.3 343.45 740.65 315.15 732.95 299.55 719.25 283.6 705.75 249.65 704 230.45 701.15 235.45 697.7
L 243.65 686.15
M 559.85 163.7
L 559.75 165.45
Q 559.85 165.7 559.85 167.2 560.15 163.85 559.85 163.7 Z"/>

<path fill="#CEBA6F" stroke="none" d="
M 381.05 1382.5
Q 380.9 1383.15 380.6 1383.85 377.65 1393.8 378.6 1400.75 384.85 1416.4 396.45 1416.95 397 1415.9 397.4 1415 398.3 1412.95 398.6 1410.4 399 1408.95 399.5 1405.65 400.45 1398.7 405.05 1390.65 405.45 1390.05 405.85 1389.2 407.45 1386.55 408.8 1384.5 394.45 1384.1 381.05 1382.5 Z"/>

<path fill="#E6D07B" stroke="none" d="
M 592.9 1221.1
Q 587.2 1248.5 579.2 1264.7 543.25 1274.05 544.35 1273.95
L 540.55 1277.45
Q 534.6 1281.75 523.4 1287.25 522.7 1287.5 522 1287.75 510.2 1293.25 506.35 1300.65 514.65 1301.35 523.55 1301.45 525.75 1299.05 527.15 1298.2 529.7 1296.75 533.15 1297.6 538.2 1298.35 540.15 1298.8 540.4 1298.8 540.55 1299.05 539.95 1299.15 539.6 1299.45 538.55 1299.05 535.05 1301.45 543.9 1366.55 785 1245 785 1244.6 785.15 1244.3
L 766.2 1246.95 685.2 1248.75 679 1246.85 653.4 1239.2 592.9 1221.1 Z"/>

<path fill="#E0CA7A" stroke="none" d="
M 581.7 1204.7
L 570.35 1204.85 553.2 1202.2 517.6 1193.45
Q 503.35 1254 446.75 1302.9 440.6 1313.25 442.35 1313
L 436.25 1322
Q 426.9 1333.4 408.5 1347.5 407.45 1348.15 406.5 1348.95 387.35 1363.45 381.05 1382.5 394.45 1384.1 408.8 1384.5 412.55 1378.35 414.55 1376.2 418.85 1372.3 424.45 1374.45 432.65 1376.6 435.6 1377.8 436.05 1377.8 436.4 1378.25 435.5 1378.6 434.85 1379.55 433.05 1378.25 427.4 1384.5 585.65 1380.1 831.3 1237.5 831.3 1236.55 831.55 1235.7
L 801.1 1242.8 679 1246.85 685.2 1248.75 766.2 1246.95 785.15 1244.3
Q 785 1244.6 785 1245 543.9 1366.55 535.05 1301.45 538.55 1299.05 539.6 1299.45 539.95 1299.15 540.55 1299.05 540.4 1298.8 540.15 1298.8 538.2 1298.35 533.15 1297.6 529.7 1296.75 527.15 1298.2 525.75 1299.05 523.55 1301.45 514.65 1301.35 506.35 1300.65 510.2 1293.25 522 1287.75 522.7 1287.5 523.4 1287.25 534.6 1281.75 540.55 1277.45
L 544.35 1273.95
Q 543.25 1274.05 579.2 1264.7 587.2 1248.5 592.9 1221.1
L 653.4 1239.2 581.7 1204.7 Z"/>

<path fill="#AC9035" stroke="none" d="
M 184.35 1120.85
Q 183.5 1124.25 182.55 1127.6 181.5 1131.2 180.55 1134.9 151.75 1242.4 258.3 1346.25 213.15 1364.2 235.3 1355.8 285.75 1336.75 350.95 1306.55 309.5 1295.3 274.9 1269.3 242.55 1245 216.25 1195.85 199.85 1165.3 185.75 1125.3 185 1123.05 184.35 1120.85 Z"/>

<path fill="#CCAE53" stroke="none" d="
M 435.5 1168.1
Q 458.3 1157.9 481.25 1141.25 617.15 1154.4 669.75 1101.7 691.2 1093.9 711.1 1085.6 753.7 1063.95 766.9 1030.15 768.65 1025.6 769.85 1020.9 770.1 1019.85 770.5 1018.65 689.15 1087.7 545.75 1060.65 490.6 1139.1 435.5 1168.1
M 326.4 1179.2
Q 338.2 1182.05 350 1183.1 332.35 1180 314.6 1171.85 199.05 1118.6 164.85 1085.2 172.1 1101.8 182.2 1117.5 183.25 1119.25 184.35 1120.85 185 1123.05 185.75 1125.3 199.85 1165.3 216.25 1195.85 242.55 1245 274.9 1269.3 309.5 1295.3 350.95 1306.55 369.1 1311.4 388.55 1313.55 417.9 1316.75 446.75 1302.9 503.35 1254 517.6 1193.45
L 464.5 1180.45
Q 458.45 1204.7 414.95 1224.05 395.65 1228.75 375.9 1227.7 362.9 1226.85 350.8 1225.25 323.05 1221.35 299.85 1212.5 278.2 1204.2 260.7 1187.4 249.65 1176.95 240.3 1163.25 239.75 1162.6 239.4 1161.8 238.5 1161.2 237.85 1160.7 231.15 1155.35 226.3 1149.55 249.1 1161 326.4 1179.2
M 1010.1 680.35
L 985.05 661.75
Q 979.95 687.9 977.15 708 975.25 722 972.7 735.25 953 834.3 889.4 897.5 884.85 901.1 880.4 904.7 870.05 917.85 845.9 931.3 836.8 937.85 827.55 944.55 808.5 981.7 782.35 1007.75
L 791.95 1011.35
Q 793.05 1010.6 793.85 1009.9 784.75 1021.2 781.65 1031.35 778.4 1041.55 781.65 1050.75 786.2 1063.6 803.35 1074.35 807.1 1095.5 812.65 1097.1 799.35 1113.75 796.95 1113.9 772.95 1115.5 775.45 1132.25 778 1148.9 768.35 1159 758.55 1169.05 745 1171.05 731.6 1173 706 1192.9 703.95 1192.8 652.05 1203.5
L 581.7 1204.7 653.4 1239.2 679 1246.85 801.1 1242.8
Q 878.65 1211.4 881.6 1211.8 919.95 1153.6 940.1 1147.85 960.25 1141.95 974.85 1112.4 989.3 1082.9 985.55 1034.2 981.7 985.3 1017.65 980.55 1021.25 979.95 1041 931.55 1032.95 926.55 1027.15 864.45 1001.55 833.05 994.85 795.4 990.05 768.65 994.7 738.85 999.25 709.1 1013.1 676.1 1011.75 677.95 1010.1 680.35 Z"/>

<path fill="#BDA049" stroke="none" d="
M 350 1183.1
Q 338.2 1182.05 326.4 1179.2 249.1 1161 226.3 1149.55 231.15 1155.35 237.85 1160.7 238.5 1161.2 239.4 1161.8 239.75 1162.6 240.3 1163.25 249.65 1176.95 260.7 1187.4 278.2 1204.2 299.85 1212.5 323.05 1221.35 350.8 1225.25 362.9 1226.85 375.9 1227.7 395.65 1228.75 414.95 1224.05 458.45 1204.7 464.5 1180.45
L 517.6 1193.45 553.2 1202.2 570.35 1204.85 581.7 1204.7 652.05 1203.5
Q 703.95 1192.8 706 1192.9 731.6 1173 745 1171.05 758.55 1169.05 768.35 1159 778 1148.9 775.45 1132.25 772.95 1115.5 796.95 1113.9 799.35 1113.75 812.65 1097.1 807.1 1095.5 803.35 1074.35 786.2 1063.6 781.65 1050.75 778.4 1041.55 781.65 1031.35 784.75 1021.2 793.85 1009.9 793.05 1010.6 791.95 1011.35
L 782.35 1007.75 775.2 1005.05
Q 772.25 1012.55 770.5 1018.65 770.1 1019.85 769.85 1020.9 768.65 1025.6 766.9 1030.15 753.7 1063.95 711.1 1085.6 691.2 1093.9 669.75 1101.7 617.15 1154.4 481.25 1141.25 458.3 1157.9 435.5 1168.1 392.75 1186.9 350 1183.1 Z"/>

<path fill="#D3B764" stroke="none" d="
M 354.95 963.75
Q 366.4 954.1 374.8 948.9 346.1 941.05 301.8 915.6 290.55 881.5 222.4 904.7 202.3 884.2 182.55 895.05 158.85 864.55 145.65 879.6 143 882.55 140.85 887.45 157.45 941.8 199.65 957.05 243.9 1001.7 288.55 977.15 294.85 973.7 301.3 968.7 331.25 972.2 354.95 963.75 Z"/>

<path fill="#F3EDB6" stroke="none" d="
M 376.45 719.85
L 377.3 719.95
Q 378.85 719.6 380.45 719.25 377.95 718.9 375.25 718.75
L 376.45 719.85 Z"/>

<path fill="#C4B05B" stroke="none" d="
M 456.4 616.35
Q 452.35 639.05 451.7 638.55 451.35 638.25 451.05 638 450.1 638.55 449.05 639.05 406.75 661.45 375.25 718.75 377.95 718.9 380.45 719.25 380.6 719.15 380.75 719.15 400.75 714.45 454.4 701.45 457.35 713.5 456.55 709.65 455.6 705.35 472 717 476.55 720.4 476.3 723.2 478.05 722.55 479.9 721.8 482.45 711.4 475.75 709.1 466.25 706 463.65 700.9 460.35 694.2 460.35 672.45 460.35 650.6 456.7 643.75 456.15 642.95 456.15 638.25 455.15 638 454.4 637.85
L 456.4 616.35 Z"/>

<path fill="#CDC483" stroke="none" d="
M 386.8 570
Q 373.25 570.4 366.25 570.8 360.75 570.9 356.05 570.8 355.55 602.85 337 627.4 316.6 684.55 342.35 705.45 334.75 712.05 371.35 718.75
L 376.45 719.85 375.25 718.75
Q 406.75 661.45 449.05 639.05 450.1 638.55 451.05 638 447.7 635.7 442.85 633.7 431.6 628.85 422.05 619.05 411.3 607.8 410 597.1 408.5 584.85 402.75 577.6 396.55 570 386.8 570
M 353.1 647.65
Q 355.55 646.95 357.8 646.95 359.95 646.95 361.55 648.6 363.15 650.1 363.15 652.35 363.15 654.5 362 654.6 360.75 654.8 358.2 656.1 355.55 657.45 353.2 655.3 350.95 653.05 350.8 650.7 350.7 648.3 353.1 647.65
M 363.45 675.3
Q 363.45 677.45 361.8 679.05 360.25 680.65 358.05 680.65 355.8 680.65 354.3 679.05 352.7 677.45 353.5 675.3 354.3 672.95 355.9 671.5 357.4 669.95 358.85 669.95 360.25 669.95 361.8 671.5 363.45 672.95 363.45 675.3
M 389.15 653.65
Q 387.05 654.6 386.9 657.05 386.8 659.45 385.3 659.85 383.7 660.25 382.25 658.65 380.6 657.05 380.6 654.9 380.6 652.6 382.25 651.15 383.7 649.5 386 649.5 388.15 649.5 389.75 651.15 391.3 652.6 389.15 653.65 Z"/>

<path fill="#BBA257" stroke="none" d="
M 309.25 760.6
Q 299.4 767.3 293.55 769.9 306.55 797.1 342.35 794.15 411.3 788.25 428.35 767.3 426.9 767.2 425.4 767.2 409.7 765.95 399.4 759.4 394.6 756 392.3 754.7 388.55 752.3 384.85 751.65 366.4 748.55 332.7 751.65 320.75 752.7 309.25 760.6 Z"/>

<path fill="#272413" stroke="none" d="
M 270.45 691
Q 259.05 688.55 243.65 686.15
L 235.45 697.7
Q 230.45 701.15 249.65 704 283.6 705.75 299.55 719.25 315.15 732.95 343.45 740.65 371.5 748.3 383.7 741.7
L 383.8 741.6
Q 398.75 740.65 443.55 734.7 475.6 730.45 476.3 723.2 476.55 720.4 472 717 455.6 705.35 456.55 709.65 457.35 713.5 454.4 701.45 400.75 714.45 380.75 719.15 380.6 719.15 380.45 719.25 378.85 719.6 377.3 719.95 359.3 724.15 358.35 724.75 353 727.5 346.25 726.95 337.55 726 326.4 719.7 321.2 716.75 308.15 706.7 304 703.7 299.2 699.85 293.8 695.65 270.45 691
M 353.35 374.3
Q 351.6 355.55 339.45 347.5 327.1 339.3 317 339.75 306.85 340.15 304.55 339.6 252.5 386.55 279.15 402.25 237.95 473.1 274.75 502.75 280.4 504.8 286.3 506 313.5 511.2 330.15 490.75 347.05 470.1 351.35 430.15 355.1 393.15 353.35 374.3
M 327.5 362
Q 337.15 357.05 341.7 373.15 346.25 389.1 345.6 395 344.95 400.75 337.25 402.1 329.65 403.45 322.8 409.6 315.95 415.65 309.65 410.15 303.35 404.65 303.35 396.9 303.35 389.1 310.6 378.1 317.8 367.1 327.5 362
M 680.6 503.4
Q 695.75 461 686 433.9 676.15 406.8 652.95 393.5 629.65 379.95 604.95 363.45 509.7 389.9 534.1 439.8 470.9 505.55 556.65 561.55 608.45 570.8 636.85 558.3 665.3 545.7 680.6 503.4
M 582.4 383.45
Q 594.65 383.45 603.2 392.05 611.9 400.75 611.9 413 611.9 425.15 601.05 417.95 590.05 410.7 579.7 423.75 569.4 436.75 561.2 430.95 552.85 425.15 552.85 413 552.85 400.75 561.5 392.05 570.2 383.45 582.4 383.45 Z"/>

<path fill="#C5A954" stroke="none" d="
M 117.6 731.75
Q 113.9 742.75 112.25 741.2 105.3 829.3 145.65 879.6 158.85 864.55 182.55 895.05 202.3 884.2 222.4 904.7 290.55 881.5 301.8 915.6 346.1 941.05 374.8 948.9 366.4 954.1 354.95 963.75 331.25 972.2 301.3 968.7 294.85 973.7 288.55 977.15 315.4 1059.7 362.35 1029 399 957.4 475.05 945.75 592.35 956.25 656.05 891.8 569.8 921.5 501.8 892.9 431.2 911.05 356.05 887.55 162.6 894.1 117.6 731.75 Z"/>

<path fill="#F0DEA0" stroke="none" d="
M 90 599.75
Q 89.85 602.15 90 604.55 91.45 640.55 99.65 679.3 99.8 680.25 99.9 681.2
L 118.7 728.45
Q 118.2 730.15 117.6 731.75 162.6 894.1 356.05 887.55 431.2 911.05 501.8 892.9 505.25 892 508.8 891 451.6 883.5 391.9 865.4 246.3 859.75 230.05 772.85 137.2 749.9 90 599.75 Z"/>

<path fill="#E3C472" stroke="none" d="
M 284.95 553.45
Q 299.75 554 312.2 557.6 320.1 560.05 331.25 565.15 340.35 569.45 344.25 570 349.6 570.6 356.05 570.8 360.75 570.9 366.25 570.8 373.25 570.4 386.8 570 396.55 570 402.75 577.6 408.5 584.85 410 597.1 411.3 607.8 422.05 619.05 431.6 628.85 442.85 633.7 447.7 635.7 451.05 638 451.35 638.25 451.7 638.55 452.35 639.05 456.4 616.35
L 454.4 637.85 454.55 637.6
Q 455.35 636.2 456 634.9 481.9 585.4 453.75 563.1
L 454.55 562.15 411.85 498.45
Q 401.55 482.35 387.05 434 386.15 445.05 385.05 442.65 351.6 537.6 284.95 553.45 Z"/>

<path fill="#252312" stroke="none" d="
M 237.85 558.3
L 234.1 560.3
Q 231.95 563.8 230.35 567.4 221.4 587.05 224.4 612.5 223.35 614.8 222.4 616.9
L 221.6 618.55
Q 220.25 649.3 286.3 666.6 319.6 650.35 337 627.4 355.55 602.85 356.05 570.8 349.6 570.6 344.25 570 340.35 569.45 331.25 565.15 320.1 560.05 312.2 557.6 299.75 554 284.95 553.45 267.8 557.45 248.35 556.4
L 245.9 556.8
Q 244.7 556.95 243.5 557.2 240.7 557.75 237.85 558.3 Z"/>

<path fill="#706440" stroke="none" d="
M 285.75 195.65
Q 289.5 158.3 289.65 121
L 276.35 121
Q 276.1 180.45 259.7 240.05 266.45 234 273.9 227.7
L 285.75 195.65
M 910.85 236.95
Q 910.45 230.9 910.2 225.15 877.85 197.4 839.05 227.55 831.55 233.3 823.95 241.25
L 829.95 250.65
Q 838 264.05 848.1 284.15 858.15 304.3 836.65 321.8 829.95 327.25 820.95 331.7
L 813.2 335.15 840 370 846.85 366.7 871.95 353.95
Q 890.3 343.5 899.95 334.6 907.6 327.65 909.8 321.8 915.15 307.4 910.85 236.95 Z"/>

<path fill="#B48E4A" stroke="none" d="
M 325.65 125.05
Q 325.62578125 124.7986328125 325.75 124.55 331.9 160.35 357.95 166.55 359.55 165.6 361.3 164.5 380.75 152.85 394.8 146.7 371.9 84.65 302.8 41.45 302.55 41.35 302.4 41.2 270.85 21.85 271 49.5 272.5 59.05 273.55 68.45 276.5 94.7 276.35 121
L 289.65 121
Q 289.8 93.9 287.95 66.8 287.95 51.25 293.8 55.8 295.65 57.3 298.25 60.9 317.3197265625 87.95703125 325.65 125.05
M 368.95 122.65
Q 368.25 129.05 368.25 140.65 368.45 141.7 368.45 142.75 359.7 141.15 343.45 114.3 343.7 114.7 348 107.1 326.55 77.15 318.1 72.1 309.5 66.95 308.55 66.15
L 300.4 50.85
Q 301.8 51.65 303.7 53 304 53.15 304 53 338.2 77.7 368.95 122.65 Z"/>

<path fill="#97691C" stroke="none" d="
M 368.25 140.65
Q 368.25 129.05 368.95 122.65 338.2 77.7 304 53 304 53.15 303.7 53 301.8 51.65 300.4 50.85
L 308.55 66.15
Q 309.5 66.95 318.1 72.1 326.55 77.15 348 107.1 343.7 114.7 343.45 114.3 359.7 141.15 368.45 142.75 368.45 141.7 368.25 140.65 Z"/>

<path fill="#DBB65C" stroke="none" d="
M 325.75 125.5
Q 325.7 125.35 325.7 125.3
L 325.7 125.2
Q 325.68671875 125.141015625 325.65 125.05 317.3197265625 87.95703125 298.25 60.9 295.65 57.3 293.8 55.8 287.95 51.25 287.95 66.8 289.8 93.9 289.65 121 289.5 158.3 285.75 195.65 285.1 201.8 284.3 208 289.65 196.7 302.4 185 315 173.2 320.9 159.95 325.9 148.25 325.75 125.6
L 325.75 125.5 Z"/>

<path fill="#A37D36" stroke="none" d="
M 325.7 125.3
Q 325.7 125.35 325.75 125.5
L 325.75 125.6
Q 325.9 148.25 320.9 159.95 315 173.2 302.4 185 289.65 196.7 284.3 208 285.1 201.8 285.75 195.65
L 273.9 227.7
Q 285.2 218.2 298.35 208 328.95 184.05 357.95 166.55 331.9 160.35 325.75 124.55 325.62578125 124.7986328125 325.65 125.05 325.68671875 125.141015625 325.7 125.2
L 325.7 125.3 Z"/>

<path fill="#A88643" stroke="none" d="
M 528.7 189.2
Q 523 190.55 517.3 192.7 481.35 206.1 445.55 253.6 404.9 308.2 389.1 379.85
L 392 420 398.6 412.55 432.1 374.3 461.65 280.45
Q 471.7 234.8 528.7 189.2 Z"/>

<path fill="#E5C66C" stroke="none" d="
M 524 145.55
Q 522.7 142.95 521.6 140.3 436.05 134.7 410.4 141.15 403.65 142.95 394.8 146.7 380.75 152.85 361.3 164.5 359.55 165.6 357.95 166.55 328.95 184.05 298.35 208 285.2 218.2 273.9 227.7 266.45 234 259.7 240.05 217.3 278.1 207.15 304.6 202.05 317.85 193.45 347.65 184.2 379.85 178.65 395.3 165 433.25 145.25 471.5
L 162.6 492.4
Q 130.5 573.05 230.35 567.4 231.95 563.8 234.1 560.3
L 237.85 558.3
Q 240.7 557.75 243.5 557.2 244.7 556.95 245.9 556.8
L 248.35 556.4
Q 267.8 557.45 284.95 553.45 351.6 537.6 385.05 442.65 386.15 445.05 387.05 434
L 398.6 412.55 392 420 389.1 379.85
Q 404.9 308.2 445.55 253.6 481.35 206.1 517.3 192.7 552.1 178.5 558.4 169.05 551.65 161.4 548.6 160.75 548.05 159.25 547.65 157.75 546.3 153.35 545.35 149.2 531.1 146.7 524 145.55
M 339.45 347.5
Q 351.6 355.55 353.35 374.3 355.1 393.15 351.35 430.15 347.05 470.1 330.15 490.75 313.5 511.2 286.3 506 280.4 504.8 274.75 502.75 244.95 496.7 227.1 485.7 209.15 474.7 217.75 437.5 226.3 400.35 238.95 386.1 274.05 332.05 304.55 339.6 306.85 340.15 317 339.75 327.1 339.3 339.45 347.5
M 212.9 327.8
Q 222.3 311.95 242.15 300.45 261.9 288.75 292.3 280.95 322.6 273.2 332.05 282.05 341.4 290.9 291.4 309 241.25 327 221.9 370.2 202.6 413.25 204.85 389.8 206.95 366.25 205.15 355 203.25 343.65 212.9 327.8 Z"/>

<path fill="#EAD28C" stroke="none" d="
M 242.15 300.45
Q 222.3 311.95 212.9 327.8 203.25 343.65 205.15 355 206.95 366.25 204.85 389.8 202.6 413.25 221.9 370.2 241.25 327 291.4 309 341.4 290.9 332.05 282.05 322.6 273.2 292.3 280.95 261.9 288.75 242.15 300.45 Z"/>

<path fill="#FAF7DD" stroke="none" d="
M 304.55 339.6
Q 274.05 332.05 238.95 386.1 226.3 400.35 217.75 437.5 209.15 474.7 227.1 485.7 244.95 496.7 274.75 502.75 237.95 473.1 279.15 402.25 252.5 386.55 304.55 339.6
M 604.95 363.45
Q 548.5 336.25 518.65 348.05 488.9 359.85 468.75 393.8 448.65 427.75 448.4 478.6
L 437.5 498.85
Q 466.45 539.45 524.45 555.2 540.95 559.6 556.65 561.55 470.9 505.55 534.1 439.8 509.7 389.9 604.95 363.45 Z"/>

<path fill="#FFFFFF" stroke="none" d="
M 341.7 373.15
Q 337.15 357.05 327.5 362 317.8 367.1 310.6 378.1 303.35 389.1 303.35 396.9 303.35 404.65 309.65 410.15 315.95 415.65 322.8 409.6 329.65 403.45 337.25 402.1 344.95 400.75 345.6 395 346.25 389.1 341.7 373.15
M 603.2 392.05
Q 594.65 383.45 582.4 383.45 570.2 383.45 561.5 392.05 552.85 400.75 552.85 413 552.85 425.15 561.2 430.95 569.4 436.75 579.7 423.75 590.05 410.7 601.05 417.95 611.9 425.15 611.9 413 611.9 400.75 603.2 392.05 Z"/>

<path fill="#E1BD4C" stroke="none" d="
M 589.8 86.7
Q 591.5 82.8 593.8 79.05 565.9 88.4 553.8 132.55 547.05 119.95 550.05 92.7 548.15 95.5 546.85 98.75 537.85 118.35 545.35 149.2 546.3 153.35 547.65 157.75 548.05 159.25 548.6 160.75 551.65 161.4 558.4 169.05 558.8 169.55 559.45 170.3
L 559.45 170.15
Q 559.45 169.5 559.45 168.95 559.45 167.2 559.6 166.4 559.6 166.2 559.6 166.1 559.6 165.7 559.75 165.45
L 559.85 163.7
Q 560.15 163.85 559.85 167.2
L 559.75 167.7
Q 559.75 168 559.75 168.45
L 559.75 168.55
Q 559.6 169.85 559.35 171.9 561.2 167.05 561.6 171.9 570.6 166.65 580.65 164.65 580.25 164.25 580.65 162.05 580.95 160.35 581.35 158.6 585.65 139.15 599.05 128 589.8 121.95 580.5 133.6 579.2 108.8 589.8 86.7 Z"/>

<path fill="#B09057" stroke="none" d="
M 593.8 79.05
Q 591.5 82.8 589.8 86.7 579.2 108.8 580.5 133.6 589.8 121.95 599.05 128 585.65 139.15 581.35 158.6 596.2 154.55 611.9 152.55 610.95 151.9 612.05 148 617.15 128.3 629.75 113.1 642.25 97.95 662.25 87.25 636.85 76.5 611.55 97.4 606.95 45.45 648.05 0 575.15 16.1 541.6 88.55 539.95 91.95 538.55 95.4 520.25 73 528.3 24.45 486.85 65.65 521.6 140.3 522.7 142.95 524 145.55 531.1 146.7 545.35 149.2 537.85 118.35 546.85 98.75 548.15 95.5 550.05 92.7 547.05 119.95 553.8 132.55 565.9 88.4 593.8 79.05 Z"/>

<path fill="#ECCD6F" stroke="none" d="
M 1116.5 730.55
Q 1120.25 715.9 1124.3 704.25
L 994.85 795.4
Q 1001.55 833.05 1027.15 864.45 1053.75 896.95 1100.7 922.55 1061.65 820.6 1085.4 767.1 1089.7 757.4 1096 749.5 1104.3 738.65 1116.5 730.55 Z"/>

<path fill="#E1C56D" stroke="none" d="
M 1037.1 671.5
Q 1036.55 672.35 1034.85 675.3 1025.7 700.8 1022.75 723.75 1019.7 746.85 1022.85 767.3
L 1108.35 697
Q 1124.05 643.9 1129.8 659.45 1140.4 626.75 1173.25 630.9 1179.05 631.7 1185.65 633.55 1185.85 633.05 1186.15 632.65
L 1188.05 625.9
Q 1188.2 624.05 1188.05 622 1186.75 608.35 1169.9 587.25 1131 577.9 1088.1 613.55 1066.9 631 1047.15 657.7
L 1037.1 671.5 Z"/>

<path fill="#EBD07D" stroke="none" d="
M 1031.7 653.3
L 1016.45 671.25
Q 1015.65 672.35 1013.1 676.1 999.25 709.1 994.7 738.85 990.05 768.65 994.85 795.4
L 1124.3 704.25
Q 1148.05 635.45 1156.9 655.55 1162.8 639.95 1173.25 630.9 1140.4 626.75 1129.8 659.45 1124.05 643.9 1108.35 697
L 1022.85 767.3
Q 1019.7 746.85 1022.75 723.75 1025.7 700.8 1034.85 675.3 1036.55 672.35 1037.1 671.5
L 1047.15 657.7
Q 1066.9 631 1088.1 613.55 1131 577.9 1169.9 587.25 1186.75 608.35 1188.05 622 1209 613.95 1241.3 622 1241.7 621.5 1242.1 620.95
L 1245.05 612.2
Q 1246.95 593.45 1217.55 562.15 1158.65 549.95 1093.55 596.1 1061.5 618.8 1031.7 653.3 Z"/>

<path fill="#F2DA92" stroke="none" d="
M 1261.6 580
Q 1240 566.85 1217.55 562.15 1246.95 593.45 1245.05 612.2
L 1242.1 620.95
Q 1241.7 621.5 1241.3 622 1209 613.95 1188.05 622 1188.2 624.05 1188.05 625.9
L 1186.15 632.65
Q 1185.85 633.05 1185.65 633.55 1179.05 631.7 1173.25 630.9 1162.8 639.95 1156.9 655.55 1148.05 635.45 1124.3 704.25 1120.25 715.9 1116.5 730.55 1104.3 738.65 1096 749.5 1089.7 757.4 1085.4 767.1 1061.65 820.6 1100.7 922.55 1108.1 926.45 1116 930.35 1117.2 930.6 1118.5 931 1207.9 953.65 1248.25 878.6 1251.65 942.8 1257.8 963.5 1438.9 978.75 1361.25 677.45 1328.1 632.65 1283.3 595.55 1282.25 594.8 1281.3 594 1271.5 586.05 1261.6 580
M 1345.7 752.45
Q 1346.1 753.1 1346.45 753.75 1348.25 759 1350 764 1322.65 826.35 1288.8 839.9 1282.5 842.35 1276.2 843 1267.9 844.2 1258.9 842.45 1250.85 847.3 1243.95 850.75 1203.35 871.05 1208.05 858.2 1177.95 872.1 1155.8 836.15 1155.45 836.25 1155.05 836.45
L 1149.9 838.95
Q 1140.95 846.5 1140.25 873.3 1132.35 861.4 1128.45 845.95 1126.75 838.95 1125.8 831.2 1125.8 830.4 1125.6 829.55 1121.8 793.5 1126.75 759 1224 590.85 1297.9 676.9 1291.65 689 1286.1 702.1 1315.8 703.05 1345.7 752.45 Z"/>

<path fill="#FAE29A" stroke="none" d="
M 1346.45 753.75
Q 1346.1 753.1 1345.7 752.45 1315.8 703.05 1286.1 702.1 1291.65 689 1297.9 676.9 1224 590.85 1126.75 759 1121.8 793.5 1125.6 829.55 1125.8 830.4 1125.8 831.2 1126.75 838.95 1128.45 845.95 1132.35 861.4 1140.25 873.3 1140.95 846.5 1149.9 838.95
L 1155.05 836.45
Q 1155.45 836.25 1155.8 836.15 1177.95 872.1 1208.05 858.2 1203.35 871.05 1243.95 850.75 1250.85 847.3 1258.9 842.45 1267.9 844.2 1276.2 843 1282.5 842.35 1288.8 839.9 1322.65 826.35 1350 764 1348.25 759 1346.45 753.75 Z"/>

<path fill="#DFCC88" stroke="none" d="
M 777.2 490.9
Q 774.8 548.65 746.5 585.5 645.45 678.25 456.15 638.25 456.15 642.95 456.7 643.75 460.35 650.6 460.35 672.45 460.35 694.2 463.65 700.9 466.25 706 475.75 709.1 482.45 711.4 479.9 721.8 479.75 722.65 479.35 723.6 477.2 730.95 470 749.75 465.9 763.3 455.75 766.5 448.65 768.65 428.35 767.3 411.3 788.25 342.35 794.15 306.55 797.1 293.55 769.9 291.55 770.65 290.2 771.1 280.1 773.5 265.25 757.75 255.45 747.3 247.55 734.3 240.5 722.65 238.65 718.65 234.1 709 234.1 701.45 234.1 694.9 224.85 677.95 214.35 658.55 212.75 653.05 210.35 644.7 217.2 627.8 218.75 624.3 220.55 620.85 220.65 620.55 220.8 620.3 220.8 620 221 619.7
L 221.6 618.55 222.4 616.9
Q 223.35 614.8 224.4 612.5 221.4 587.05 230.35 567.4 130.5 573.05 162.6 492.4
L 145.25 471.5
Q 135.1 491.1 123.3 510.8 111.2 530.8 103.55 548.25 90.5 577.7 90 599.75 137.2 749.9 230.05 772.85 246.3 859.75 391.9 865.4 451.6 883.5 508.8 891 505.25 892 501.8 892.9 569.8 921.5 656.05 891.8 706 877.5 741.65 829.05 749.2 828.35 756.4 827.25 792.25 807.6 817.05 798.05 859.55 757.4 864.05 664.3 902.4 578.95 860.95 465.7 809.3 437 777.2 490.9
M 744.2 647.4
Q 756.3 607.35 788.75 608.2 800.95 541.75 837.05 570.4 851.95 651.65 808.2 699.6 777.45 799.25 685.85 782.75 673.5 791.1 661.15 797.25 637.55 808.9 613.8 812.25 592.9 807.4 578.35 806.45 610.2 777.15 649.8 714.6 641.45 663.2 744.2 647.4 Z"/>

<path fill="#E8D48C" stroke="none" d="
M 788.75 608.2
Q 756.3 607.35 744.2 647.4 641.45 663.2 649.8 714.6 610.2 777.15 578.35 806.45 592.9 807.4 613.8 812.25 637.55 808.9 661.15 797.25 673.5 791.1 685.85 782.75 777.45 799.25 808.2 699.6 851.95 651.65 837.05 570.4 800.95 541.75 788.75 608.2 Z"/>

<path fill="#957537" stroke="none" d="
M 924.05 377.7
L 894.6 380.9 892.6 355.7 889.65 404.4 919.95 424.35 924.05 377.7 Z"/>

<path fill="#CBB367" stroke="none" d="
M 871.95 353.95
L 846.85 366.7 852.9 445.3
Q 857.2 455.65 860.95 465.7 902.4 578.95 864.05 664.3 859.55 757.4 817.05 798.05 898.75 766.25 857.6 845.25 903.45 874.95 880.4 904.7 884.85 901.1 889.4 897.5 953 834.3 972.7 735.25 975.25 722 977.15 708 979.95 687.9 985.05 661.75 986.4 655.3 987.7 648.2 994.85 611.65 955.55 532.8 942.4 519.55 936.75 507.95 930.55 495.25 927.85 490 927.35 489.2 927.05 488.5 929.1 485.55 930.45 483.55 931.9 481 932.55 479.9 938.5 469.45 943.55 457.3 944.15 455.5 944.8 453.9 935.4 439.55 918.35 446 913.5 447.9 908.15 451.2
L 919.95 424.35 889.65 404.4 892.6 355.7 894.6 380.9
Q 893.95 349.35 899.95 334.6 890.3 343.5 871.95 353.95 Z"/>

<path fill="#D5B458" stroke="none" d="
M 800.25 154.65
L 801.9 152.55
Q 795.45 156.15 785.4 160.6 753.65 174.15 714.95 163.55 684.9 155.35 612.05 148 610.95 151.9 611.9 152.55 596.2 154.55 581.35 158.6 580.95 160.35 580.65 162.05 580.25 164.25 580.65 164.65 570.6 166.65 561.6 171.9 561.2 167.05 559.35 171.9 559.6 169.85 559.75 168.55
L 559.75 168.45
Q 559.75 168 559.75 167.7
L 559.85 167.2
Q 559.85 165.7 559.75 165.45 559.6 165.7 559.6 166.1 559.6 166.2 559.6 166.4 559.45 167.2 559.45 168.95 559.45 169.5 559.45 170.15
L 559.45 170.3
Q 558.8 169.55 558.4 169.05 552.1 178.5 517.3 192.7 523 190.55 528.7 189.2 471.7 234.8 461.65 280.45
L 432.1 374.3 398.6 412.55 387.05 434
Q 401.55 482.35 411.85 498.45
L 454.55 562.15 453.75 563.1
Q 481.9 585.4 456 634.9 455.35 636.2 454.55 637.6
L 454.4 637.85
Q 455.15 638 456.15 638.25 645.45 678.25 746.5 585.5 774.8 548.65 777.2 490.9 809.3 437 860.95 465.7 857.2 455.65 852.9 445.3
L 846.85 366.7 840 370 813.2 335.15 820.95 331.7
Q 829.95 327.25 836.65 321.8 858.15 304.3 848.1 284.15 838 264.05 829.95 250.65
L 823.95 241.25 777.75 275.6 745.4 283.15 758.95 237.1
Q 782.15 184.9 804.05 151.6 802.4 152.85 800.95 154.05
L 800.25 154.65
M 700.2 357.55
Q 709.85 373.4 707.95 384.8 706.1 396.05 708.25 419.55 710.5 443.05 691.2 400 671.9 356.75 621.7 338.8 571.65 320.7 581.1 311.85 590.45 303 620.8 310.75 651.25 318.5 670.95 330.2 690.8 341.75 700.2 357.55
M 686 433.9
Q 695.75 461 680.6 503.4 665.3 545.7 636.85 558.3 608.45 570.8 556.65 561.55 540.95 559.6 524.45 555.2 466.45 539.45 437.5 498.85
L 448.4 478.6
Q 448.65 427.75 468.75 393.8 488.9 359.85 518.65 348.05 548.5 336.25 604.95 363.45 629.65 379.95 652.95 393.5 676.15 406.8 686 433.9 Z"/>

<path fill="#E2C060" stroke="none" d="
M 707.95 384.8
Q 709.85 373.4 700.2 357.55 690.8 341.75 670.95 330.2 651.25 318.5 620.8 310.75 590.45 303 581.1 311.85 571.65 320.7 621.7 338.8 671.9 356.75 691.2 400 710.5 443.05 708.25 419.55 706.1 396.05 707.95 384.8 Z"/>

<path fill="#E1CE87" stroke="none" d="
M 804.45 150.95
Q 803.5 151.45 802.6 152.15 802.2 152.3 801.9 152.55
L 800.25 154.65 800.95 154.05
Q 802.6 152.55 804.2 151.2 804.3 151.1 804.45 150.95 Z"/>

<path fill="#C19D3D" stroke="none" d="
M 875.55 126.5
Q 865.75 130.7 856.75 139.15 846.45 148.55 837.3 163.4 827.55 179.5 801.65 232.4 801.4 232.65 801.25 234.45
L 777.75 275.6 823.95 241.25
Q 831.55 233.3 839.05 227.55 877.85 197.4 910.2 225.15 906.55 173.15 901.7 141.95 898.4 119.55 879.85 125.1 877.75 125.6 875.55 126.5 Z"/>

<path fill="#B59941" stroke="none" d="
M 908.7 77.45
Q 903.45 70.85 898.4 67.6
L 879.85 125.1
Q 898.4 119.55 901.7 141.95 906.55 173.15 910.2 225.15 910.45 230.9 910.85 236.95 915.15 307.4 909.8 321.8 907.6 327.65 899.95 334.6 893.95 349.35 894.6 380.9
L 924.05 377.7 919.95 424.35 908.15 451.2
Q 913.5 447.9 918.35 446 935.4 439.55 944.8 453.9 949.1 442.35 952.55 429.25 960.45 398.85 960.45 372.35 960.45 326.15 946.55 226.35 937.15 159.55 926.85 121.3 918.05 89.2 908.7 77.45 Z"/>

<path fill="#CAB165" stroke="none" d="
M 1408.5 877.9
Q 1405 861.95 1400.05 846.75 1391.3 1068.95 1308.25 1077.15 1283.45 1093.25 1255.55 1142.85 1250.15 1152.25 1243.85 1161.2 1244.8 1160.6 1245.85 1159.8
L 1235.65 1173
Q 1236.35 1173.6 1237.3 1174.25 1238.9 1174.95 1241.85 1175.45 1242 1175.45 1242.25 1175.6 1243.75 1175.6 1245.6 1175.45
L 1245.75 1175.45
Q 1248.55 1175.05 1252.3 1173.85 1265.1 1169.7 1288.25 1156.3 1299.1 1149.95 1312.3 1141.65 1316.7 1138.65 1321.7 1135.5 1344.75 1120.5 1360.9 1107.2 1389.45 1083.7 1395.35 1066.15 1398 1058.05 1400.6 1049.9 1406.45 1029.6 1411.15 1007.5 1417.9 975.55 1416.15 937.7 1414.8 906.85 1408.5 877.9 Z"/>
</g>

<g id="Layer1_0_FILL">
<path fill="#CCEFF3" stroke="none" d="
M 1566.55 559.45
Q 1590.15 447.95 1792.15 408.35 1994 368.8 2256.05 424.3 2518.05 479.75 2686.7 597.75 2855.15 715.8 2831.6 827.25 2821.35 875.65 2794 935.9 2687.2 1060.05 2520.6 1075.45 2516.85 1079.7 2511.25 1081.95 2710.05 1088.55 2826.35 953.35 2856 912.25 2874.3 815.7 2892.6 719.2 2710.25 589.5 2527.85 459.8 2244.35 399.8 1960.85 339.75 1742.4 382.6 1523.85 425.45 1495.7 546.95 1467.45 668.4 1634.1 801.35 1800.8 934.3 2064.45 980.1 2328.1 1025.8 2543.5 955.35 2542.45 945.5 2539.8 935.35 2336.95 1003.65 2142.1 962.4 1880.1 906.95 1711.5 788.9 1542.95 670.9 1566.55 559.45 Z"/>

<path fill="#ECFDFF" stroke="none" d="
M 1792.15 408.35
Q 1590.15 447.95 1566.55 559.45 1542.95 670.9 1711.5 788.9 1880.1 906.95 2142.1 962.4 2336.95 1003.65 2539.8 935.35 2542.45 945.5 2543.5 955.35 2550.85 1024.85 2479.2 1077.6 2500.35 1077.35 2520.6 1075.45 2687.2 1060.05 2794 935.9 2821.35 875.65 2831.6 827.25 2855.15 715.8 2686.7 597.75 2518.05 479.75 2256.05 424.3 1994 368.8 1792.15 408.35 Z"/>
</g>

<g id="Layer0_0_FILL">
<path fill="#207982" stroke="none" d="
M 2475.3 726.65
L 2509.85 732.3
Q 2545.3 740.9 2550.3 717.2 2553.4 702.8 2541.25 694.6 2541.25 694.7 2541.2 694.85 2536.2 718.5 2500.8 709.95
L 2466.25 704.25 2459.45 735.2 2455.6 752.55 2446.15 800.95
Q 2439.2 833.75 2431 852.05 2422.85 870.35 2403.3 866.2 2396.9 864.9 2392.15 861.05 2390.35 870.65 2396.35 878.4 2402.35 886.45 2412.35 888.55 2431.85 892.7 2440.1 874.4 2448.25 856.1 2455.2 823.3
L 2464.65 774.95 2475.3 726.65
M 2575.9 618.4
Q 2579.05 603.5 2567 595.25 2566.95 595.6 2566.85 596 2561.9 619.3 2531.45 612.85 2509.8 608.25 2496.7 621.35 2486.95 631.15 2479.4 654.55
L 2477.75 659.7 2494.05 662.1
Q 2499.4 650.1 2505.75 643.75 2518.8 630.6 2540.5 635.2 2570.95 641.65 2575.9 618.4
M 2413.55 717.85
L 2418 696.9 2395.3 694.5
Q 2388.6 693.1 2383.75 689.6 2382.2 699.45 2387.6 706.8 2393.4 714.55 2404.4 716.9
L 2413.55 717.85
M 1875.45 629.9
L 1866.35 642.9 1826.7 702.75
Q 1822.4 709.7 1816.05 713 1806.05 723.45 1791.05 720.85 1786.4 720.15 1782.45 714.55 1783.75 719.8 1785.55 724.4 1791.6 741.85 1800.2 743.25 1815.05 745.85 1825.15 735.4 1831.55 732.1 1835.75 725.15
L 1873.7 667.95
Q 1873.95 657.6 1874.65 644.25 1874.95 637.45 1875.45 629.9
M 1930.6 589.65
Q 1930.05 571.65 1921.35 563.7 1921.45 565.35 1921.45 567.25
L 1920.95 616.75 1919.85 651.3 1919.25 669.15 1927.5 652.45 1929.75 648.05 1930.6 589.65
M 1832.9 586.9
L 1834.15 561.35
Q 1833.85 547.8 1824.9 541.5
L 1823.8 564.55 1821.15 590 1818.85 635.55 1818.75 637.25 1819.6 635.65 1829.95 618.2 1830.25 612.35 1832.9 586.9
M 2191.95 778.8
Q 2190.1 775.95 2188.4 773 2192.1 788.15 2201.1 801.15 2220.05 828.95 2253.25 835.95 2295.15 844.85 2327.05 817.4 2355.45 792.65 2364.25 751.1 2372.35 712.9 2358.8 683.05 2357.05 679.25 2355.1 675.85 2360.2 695.85 2356.9 719.25 2356.15 723.9 2355.15 728.7 2346.35 770.3 2317.95 795 2286.05 822.4 2244.15 813.55 2210.95 806.55 2191.95 778.8
M 2237.3 739.4
Q 2242.15 716.6 2256.55 701.9 2273.5 684.35 2295.55 689.15 2303.65 690.95 2308.8 695.75 2307.05 671.25 2286.5 666.75 2264.45 661.95 2247.45 679.45 2238.85 688.3 2233.7 700.1 2230.2 707.9 2228.25 716.95 2223.7 738.5 2233.45 752.55 2234.7 754.25 2236 755.8 2235.45 748.25 2237.3 739.4
M 2010.9 740.45
Q 2008.95 737.65 2007.35 734.8 2011.05 749.8 2020 762.8 2039 790.6 2072.15 797.65 2114.1 806.5 2145.9 779.05 2166.5 761.15 2176.85 734.3 2176 721.1 2178.6 706.45 2180 699 2182.1 692.05 2183.85 686.45 2186.1 681.05 2185.3 661.55 2177.75 644.7 2176 640.95 2174 637.45 2180.2 661.5 2174.1 690.35 2174.05 690.55 2174 690.75 2165.2 732.1 2136.85 756.65 2105.05 784.1 2063.05 775.25 2029.95 768.2 2010.9 740.45
M 2105.4 628.4
Q 2083.4 623.6 2066.35 641.1 2054.4 653.45 2049.1 671.35 2048 674.85 2047.2 678.6 2042.65 700.15 2052.4 714.2 2053.65 715.95 2054.95 717.45 2054.35 709.9 2056.25 701.05 2061.05 678.25 2075.45 663.55 2092.45 646.05 2114.5 650.85 2122.55 652.6 2127.75 657.4 2125.95 632.9 2105.4 628.4
M 2017 584.05
L 2014.95 589.1
Q 1995.9 626.75 1977.5 660.2 1963.6 685.7 1950.2 708.7 1941.35 723.65 1925.6 738.15 1914.45 748.1 1900.2 744.85 1891.55 742.95 1885.6 734.9 1891.85 763.35 1909.2 767.25 1923.55 770.45 1934.7 760.55 1950.45 746.05 1959.2 731.05 1979 697.25 1999.8 658.3 2006.45 632.75 2023.15 613.35 2023.65 612.4 2024.1 611.55
L 2026 606.45
Q 2028.1 596.55 2021.85 588.4 2019.75 585.6 2017.1 583.5 2017.05 583.75 2017 584.05 Z"/>

<path fill="#3EEAFA" stroke="none" d="
M 2422.6 740.1
Q 2416.65 735.95 2411.5 727.7
L 2399.05 786.45
Q 2394.25 809.05 2384.45 833.75
L 2383.15 838.2
Q 2381.05 848 2387.25 856 2389.4 858.9 2392.15 861.05 2396.9 864.9 2403.3 866.2 2422.85 870.35 2431 852.05 2439.2 833.75 2446.15 800.95
L 2455.6 752.55 2459.45 735.2
Q 2438.2 750.95 2422.6 740.1
M 1778.6 641.4
Q 1773.55 636.45 1769.3 627.8 1768.65 648.3 1769 658.55 1769.95 684.35 1776.45 702.05 1779.2 709.9 1782.45 714.55 1786.4 720.15 1791.05 720.85 1806.05 723.45 1816.05 713 1822.4 709.7 1826.7 702.75
L 1866.35 642.9
Q 1844.6 657.1 1832.3 652 1830.1 651.2 1828.3 649.75 1822.7 645.3 1819.6 635.65
L 1818.75 637.25 1818.85 635.55
Q 1794.7 657.25 1778.6 641.4
M 2178.6 706.45
Q 2176 721.1 2176.85 734.3 2178.2 755.5 2188.4 773 2190.1 775.95 2191.95 778.8 2210.95 806.55 2244.15 813.55 2286.05 822.4 2317.95 795 2346.35 770.3 2355.15 728.7 2356.15 723.9 2356.9 719.25 2336.85 733.85 2318 720.55 2313.1 717.05 2308.25 711.7 2307.15 720.5 2304.55 731.05 2299.1 752 2283.45 761.6 2269.7 769.75 2254.1 766.45 2243.2 764.15 2236 755.8 2234.7 754.25 2233.45 752.55 2223.7 738.5 2228.25 716.95 2230.2 707.9 2233.7 700.1 2213.35 715.85 2194.9 703.9 2190.2 700.85 2185.7 696.1 2183.9 694.2 2182.1 692.05 2180 699 2178.6 706.45
M 1950.2 708.7
Q 1963.6 685.7 1977.5 660.2
L 1927.5 652.45 1919.25 669.15 1919.85 651.3
Q 1901.2 681.15 1884.05 660 1882.75 658.35 1881.5 656.55 1878 651.45 1874.65 644.25 1873.95 657.6 1873.7 667.95 1873.2 684.75 1873.9 693.8 1876.2 722.1 1885.6 734.9 1891.55 742.95 1900.2 744.85 1914.45 748.1 1925.6 738.15 1941.35 723.65 1950.2 708.7
M 2047.2 678.6
Q 2048 674.85 2049.1 671.35 2027.25 685 2010.5 674.8 2004.1 670.85 1998.45 663.5 1998 665.8 1997.6 668.1 1990.65 706.1 2007.35 734.8 2008.95 737.65 2010.9 740.45 2029.95 768.2 2063.05 775.25 2105.05 784.1 2136.85 756.65 2165.2 732.1 2174 690.75 2151.9 708.75 2136.15 696.35 2130.4 691.8 2125.55 683.25 2124.6 687.85 2123.4 692.7 2118.1 713.7 2102.35 723.3 2088.65 731.4 2073.05 728.15 2062.15 725.8 2054.95 717.45 2053.65 715.95 2052.4 714.2 2042.65 700.15 2047.2 678.6 Z"/>

<path fill="#8BF5FF" stroke="none" d="
M 2539 565.6
Q 2496.05 556.45 2470.1 576.45 2449.3 592.45 2435.8 631.3
L 2429.15 651.1
Q 2405.5 646.85 2397.15 647.5 2378.5 648.95 2374.95 665.65 2372.7 676.45 2378.5 684.35 2380.75 687.35 2383.75 689.6 2388.6 693.1 2395.3 694.5
L 2418 696.9 2413.55 717.85 2411.5 727.7
Q 2416.65 735.95 2422.6 740.1 2438.2 750.95 2459.45 735.2
L 2466.25 704.25 2500.8 709.95
Q 2536.2 718.5 2541.2 694.85 2541.25 694.7 2541.25 694.6 2546 671.9 2512.65 664.8
L 2494.05 662.1 2477.75 659.7 2479.4 654.55
Q 2486.95 631.15 2496.7 621.35 2509.8 608.25 2531.45 612.85 2561.9 619.3 2566.85 596 2566.95 595.6 2567 595.25 2571.3 572.4 2539 565.6
M 1921.45 567.25
Q 1921.45 565.35 1921.35 563.7 1919.4 539.65 1900.8 535.75 1880.6 531.45 1868.35 553.15
L 1829.95 618.2 1819.6 635.65
Q 1822.7 645.3 1828.3 649.75 1830.1 651.2 1832.3 652 1844.6 657.1 1866.35 642.9
L 1875.45 629.9
Q 1874.95 637.45 1874.65 644.25 1878 651.45 1881.5 656.55 1882.75 658.35 1884.05 660 1901.2 681.15 1919.85 651.3
L 1920.95 616.75 1921.45 567.25
M 1824.9 541.5
L 1825.1 538.9
Q 1824.6 518.85 1805.25 514.75 1794.9 512.55 1786.2 517.6 1777.25 522.45 1775.15 532.35
L 1772.25 558.15
Q 1770.05 601.45 1769.3 627.8 1773.55 636.45 1778.6 641.4 1794.7 657.25 1818.85 635.55
L 1821.15 590 1823.8 564.55 1824.9 541.5
M 2186.1 681.05
Q 2183.85 686.45 2182.1 692.05 2183.9 694.2 2185.7 696.1 2190.2 700.85 2194.9 703.9 2213.35 715.85 2233.7 700.1 2238.85 688.3 2247.45 679.45 2264.45 661.95 2286.5 666.75 2307.05 671.25 2308.8 695.75 2309.3 702.9 2308.25 711.7 2313.1 717.05 2318 720.55 2336.85 733.85 2356.9 719.25 2360.2 695.85 2355.1 675.85 2353.05 668 2349.75 660.65 2334.65 627.55 2298.8 620 2250.2 609.7 2215.25 640.45 2195.8 657.75 2186.1 681.05
M 2066.35 641.1
Q 2083.4 623.6 2105.4 628.4 2125.95 632.9 2127.75 657.4 2128.5 668.4 2125.55 683.25 2130.4 691.8 2136.15 696.35 2151.9 708.75 2174 690.75 2174.05 690.55 2174.1 690.35 2180.2 661.5 2174 637.45 2171.95 629.65 2168.7 622.3 2153.55 589.2 2117.7 581.65 2069.15 571.35 2034.2 602.15 2028.25 607.45 2023.15 613.35 2006.45 632.75 1999.8 658.3 1999.05 660.8 1998.45 663.5 2004.1 670.85 2010.5 674.8 2027.25 685 2049.1 671.35 2054.4 653.45 2066.35 641.1
M 2017.1 583.5
Q 2018.9 573.95 2012.8 565.95 2006.25 557.6 1996.1 555.45 1977.6 551.55 1970.35 566.15
L 1929.75 648.05 1927.5 652.45 1977.5 660.2
Q 1995.9 626.75 2014.95 589.1
L 2017 584.05
Q 2017.05 583.75 2017.1 583.5 Z"/>
</g>

<path id="Layer0_0_1_STROKES" stroke="#1F7982" stroke-width="10" stroke-linejoin="round" stroke-linecap="round" fill="none" d="
M 2017.1 583.5
Q 2019.75 585.6 2021.85 588.4 2028.1 596.55 2026 606.45
L 2024.1 611.55
Q 2023.65 612.4 2023.15 613.35
M 2174 637.45
Q 2176 640.95 2177.75 644.7 2185.3 661.55 2186.1 681.05
M 2355.1 675.85
Q 2357.05 679.25 2358.8 683.05 2372.35 712.9 2364.25 751.1 2355.45 792.65 2327.05 817.4 2295.15 844.85 2253.25 835.95 2220.05 828.95 2201.1 801.15 2192.1 788.15 2188.4 773
M 2176.85 734.3
Q 2166.5 761.15 2145.9 779.05 2114.1 806.5 2072.15 797.65 2039 790.6 2020 762.8 2011.05 749.8 2007.35 734.8
M 1999.8 658.3
Q 1979 697.25 1959.2 731.05 1950.45 746.05 1934.7 760.55 1923.55 770.45 1909.2 767.25 1891.85 763.35 1885.6 734.9
M 1873.7 667.95
L 1835.75 725.15
Q 1831.55 732.1 1825.15 735.4 1815.05 745.85 1800.2 743.25 1791.6 741.85 1785.55 724.4 1783.75 719.8 1782.45 714.55
M 1824.9 541.5
Q 1833.85 547.8 1834.15 561.35
L 1832.9 586.9 1830.25 612.35 1829.95 618.2
M 1921.35 563.7
Q 1930.05 571.65 1930.6 589.65
L 1929.75 648.05
M 2054.95 717.45
Q 2054.35 709.9 2056.25 701.05 2061.05 678.25 2075.45 663.55 2092.45 646.05 2114.5 650.85 2122.55 652.6 2127.75 657.4
M 2236 755.8
Q 2235.45 748.25 2237.3 739.4 2242.15 716.6 2256.55 701.9 2273.5 684.35 2295.55 689.15 2303.65 690.95 2308.8 695.75
M 2567 595.25
Q 2579.05 603.5 2575.9 618.4 2570.95 641.65 2540.5 635.2 2518.8 630.6 2505.75 643.75 2499.4 650.1 2494.05 662.1
M 2383.75 689.6
Q 2382.2 699.45 2387.6 706.8 2393.4 714.55 2404.4 716.9
L 2413.55 717.85
M 2392.15 861.05
Q 2390.35 870.65 2396.35 878.4 2402.35 886.45 2412.35 888.55 2431.85 892.7 2440.1 874.4 2448.25 856.1 2455.2 823.3
L 2464.65 774.95 2475.3 726.65 2509.85 732.3
Q 2545.3 740.9 2550.3 717.2 2553.4 702.8 2541.25 694.6"/>
</defs>

<g transform="matrix( 1, 0, 0, 1, 0,0) ">
<use xlink:href="#Layer6_0_FILL"/>
</g>

<g filter="url(#Filter_1)" transform="matrix( 1, 0, 0, 1, 0,0) ">
<g transform="matrix( 0.1060333251953125, 0, 0, 0.1060333251953125, 4518.2,1071.9) ">
<g transform="matrix( 1, 0, 0, 1, -1563,-1771.85) ">
<use xlink:href="#Symbol_2_0_Layer0_0_FILL"/>
</g>
</g>
</g>

<g filter="url(#Filter_1)" transform="matrix( 1, 0, 0, 1, 0,0) ">
<g transform="matrix( 0.1060333251953125, 0, 0, 0.1060333251953125, 1148.1,1032.7) ">
<g transform="matrix( 1, 0, 0, 1, -1563,-1771.85) ">
<use xlink:href="#Symbol_2_0_Layer0_0_FILL"/>
</g>
</g>
</g>

<g filter="url(#Filter_1)" transform="matrix( 1, 0, 0, 1, 0,0) ">
<g transform="matrix( 0.1060333251953125, 0, 0, 0.1060333251953125, 1661.4,707.4) ">
<g transform="matrix( 1, 0, 0, 1, -1563,-1771.85) ">
<use xlink:href="#Symbol_2_0_Layer0_0_FILL"/>
</g>
</g>
</g>

<g filter="url(#Filter_1)" transform="matrix( 1, 0, 0, 1, 0,0) ">
<g transform="matrix( 0.1060333251953125, 0, 0, 0.1060333251953125, 372.2,1009.1) ">
<g transform="matrix( 1, 0, 0, 1, -1563,-1771.85) ">
<use xlink:href="#Symbol_2_0_Layer0_0_FILL"/>
</g>
</g>
</g>

<g filter="url(#Filter_1)" transform="matrix( 1, 0, 0, 1, 0,0) ">
<g transform="matrix( 0.1060333251953125, 0, 0, 0.1060333251953125, 869.9,480.1) ">
<g transform="matrix( 1, 0, 0, 1, -1563,-1771.85) ">
<use xlink:href="#Symbol_2_0_Layer0_0_FILL"/>
</g>
</g>
</g>

<g filter="url(#Filter_1)" transform="matrix( 1, 0, 0, 1, 0,0) ">
<g transform="matrix( 0.1060333251953125, 0, 0, 0.1060333251953125, 2073,437.05) ">
<g transform="matrix( 1, 0, 0, 1, -1563,-1771.85) ">
<use xlink:href="#Symbol_2_0_Layer0_0_FILL"/>
</g>
</g>
</g>

<g filter="url(#Filter_1)" transform="matrix( 1, 0, 0, 1, 0,0) ">
<g transform="matrix( 0.1060333251953125, 0, 0, 0.1060333251953125, 3072.25,433.15) ">
<g transform="matrix( 1, 0, 0, 1, -1563,-1771.85) ">
<use xlink:href="#Symbol_2_0_Layer0_0_FILL"/>
</g>
</g>
</g>

<g filter="url(#Filter_1)" transform="matrix( 1, 0, 0, 1, 0,0) ">
<g transform="matrix( 0.1060333251953125, 0, 0, 0.1060333251953125, 693.55,1526.4) ">
<g transform="matrix( 1, 0, 0, 1, -1563,-1771.85) ">
<use xlink:href="#Symbol_2_0_Layer0_0_FILL"/>
</g>
</g>
</g>

<g filter="url(#Filter_1)" transform="matrix( 1, 0, 0, 1, 0,0) ">
<g transform="matrix( 0.1060333251953125, 0, 0, 0.1060333251953125, 4200.75,495.8) ">
<g transform="matrix( 1, 0, 0, 1, -1563,-1771.85) ">
<use xlink:href="#Symbol_2_0_Layer0_0_FILL"/>
</g>
</g>
</g>

<g transform="matrix( 1, 0, 0, 1, 0,0) ">
<use xlink:href="#Layer4_0_FILL"/>
</g>

<g filter="url(#Filter_2)" transform="matrix( 1, 0, 0, 1, 0,0) ">
<g transform="matrix( 21.26080322265625, 0, 0, 21.26080322265625, 2616.05,1713.55) ">
<g transform="matrix( 1, 0, 0, 1, 0,0) ">
<use xlink:href="#couch_0_Layer0_0_FILL"/>
</g>
</g>
</g>

<g filter="url(#Filter_3)" transform="matrix( 1, 0, 0, 1, 0,0) ">
<g transform="matrix( 0.875396728515625, 0, 0, 0.875396728515625, 1462.15,1018.7) ">
<g transform="matrix( 1, 0, 0, 1, 0,0) ">
<use xlink:href="#Symbol_1_0_Layer0_0_FILL"/>
</g>
</g>
</g>

<g transform="matrix( 1, 0, 0, 1, 0,0) ">
<use xlink:href="#Layer1_0_FILL"/>
</g>

<g transform="matrix( 1, 0, 0, 1, 0,0) ">
<use xlink:href="#Layer0_0_FILL"/>

<use xlink:href="#Layer0_0_1_STROKES"/>
</g>
</svg>
